<svg width="512" height="732" viewBox="0 0 512 732" fill="none" xmlns="http://www.w3.org/2000/svg">
<g clip-path="url(#clip0_336_1983)">
<path d="M92.1635 579.082L86 585.245L92.1635 591.409" stroke="white" stroke-opacity="0.05" stroke-width="2" stroke-linecap="round" stroke-linejoin="round"/>
</g>
<path d="M97.5566 594.491L102.179 576" stroke="white" stroke-opacity="0.05" stroke-width="2" stroke-linecap="round"/>
<path d="M107.572 579.082L113.736 585.245L107.572 591.409" stroke="white" stroke-opacity="0.05" stroke-width="2" stroke-linecap="round" stroke-linejoin="round"/>
<path d="M284.68 685H254.32C253.59 685 253 685.554 253 686.24V714.76C253 715.446 253.59 716 254.32 716H284.68C285.41 716 286 715.446 286 714.76V686.24C286 685.554 285.41 685 284.68 685ZM269.545 700.736L261.625 706.975C261.411 707.146 261.085 707.002 261.085 706.739V704.309C261.085 704.22 261.13 704.131 261.205 704.073L265.734 700.5L261.205 696.927C261.167 696.899 261.136 696.863 261.115 696.822C261.095 696.781 261.084 696.736 261.085 696.691V694.261C261.085 693.998 261.411 693.854 261.625 694.025L269.545 700.26C269.706 700.384 269.706 700.612 269.545 700.736ZM277.915 706.739C277.915 706.909 277.775 707.049 277.606 707.049H269.974C269.805 707.049 269.665 706.909 269.665 706.739V704.879C269.665 704.708 269.805 704.569 269.974 704.569H277.606C277.775 704.569 277.915 704.708 277.915 704.879V706.739Z" fill="white" fill-opacity="0.05"/>
<path d="M176.68 267H146.32C145.59 267 145 267.554 145 268.24V296.76C145 297.446 145.59 298 146.32 298H176.68C177.41 298 178 297.446 178 296.76V268.24C178 267.554 177.41 267 176.68 267ZM161.545 282.736L153.625 288.975C153.411 289.146 153.085 289.002 153.085 288.739V286.309C153.085 286.22 153.13 286.131 153.205 286.073L157.734 282.5L153.205 278.927C153.167 278.899 153.136 278.863 153.115 278.822C153.095 278.781 153.084 278.736 153.085 278.691V276.261C153.085 275.998 153.411 275.854 153.625 276.025L161.545 282.26C161.706 282.384 161.706 282.612 161.545 282.736ZM169.915 288.739C169.915 288.909 169.775 289.049 169.606 289.049H161.974C161.805 289.049 161.665 288.909 161.665 288.739V286.879C161.665 286.708 161.805 286.569 161.974 286.569H169.606C169.775 286.569 169.915 286.708 169.915 286.879V288.739Z" fill="white" fill-opacity="0.05"/>
<g clip-path="url(#clip1_336_1983)">
<path d="M338.68 461H308.32C307.59 461 307 461.554 307 462.24V490.76C307 491.446 307.59 492 308.32 492H338.68C339.41 492 340 491.446 340 490.76V462.24C340 461.554 339.41 461 338.68 461ZM323.545 476.736L315.625 482.975C315.411 483.146 315.085 483.002 315.085 482.739V480.309C315.085 480.22 315.13 480.131 315.205 480.073L319.734 476.5L315.205 472.927C315.167 472.899 315.136 472.863 315.115 472.822C315.095 472.781 315.084 472.736 315.085 472.691V470.261C315.085 469.998 315.411 469.854 315.625 470.025L323.545 476.26C323.706 476.384 323.706 476.612 323.545 476.736ZM331.915 482.739C331.915 482.909 331.775 483.049 331.606 483.049H323.974C323.805 483.049 323.665 482.909 323.665 482.739V480.879C323.665 480.708 323.805 480.569 323.974 480.569H331.606C331.775 480.569 331.915 480.708 331.915 480.879V482.739Z" fill="white" fill-opacity="0.05"/>
</g>
<path d="M343.167 689.083L337 695.25L343.167 701.417" stroke="white" stroke-opacity="0.05" stroke-width="2" stroke-linecap="round" stroke-linejoin="round"/>
<path d="M348.562 704.5L353.187 686" stroke="white" stroke-opacity="0.05" stroke-width="2" stroke-linecap="round"/>
<path d="M358.583 689.083L364.75 695.25L358.583 701.417" stroke="white" stroke-opacity="0.05" stroke-width="2" stroke-linecap="round" stroke-linejoin="round"/>
<path d="M235.167 271.083L229 277.25L235.167 283.417" stroke="white" stroke-opacity="0.05" stroke-width="2" stroke-linecap="round" stroke-linejoin="round"/>
<path d="M240.562 286.5L245.187 268" stroke="white" stroke-opacity="0.05" stroke-width="2" stroke-linecap="round"/>
<path d="M250.583 271.083L256.75 277.25L250.583 283.417" stroke="white" stroke-opacity="0.05" stroke-width="2" stroke-linecap="round" stroke-linejoin="round"/>
<path d="M443.473 639.961L438.5 645.125L443.473 650.3L445 648.703L441.555 645.125L445 641.547M449.333 635C449.908 635 450.459 635.237 450.865 635.659C451.272 636.081 451.5 636.653 451.5 637.25V653C451.5 653.597 451.272 654.169 450.865 654.591C450.459 655.013 449.908 655.25 449.333 655.25H434.167C433.592 655.25 433.041 655.013 432.635 654.591C432.228 654.169 432 653.597 432 653V637.25C432 636.653 432.228 636.081 432.635 635.659C433.041 635.237 433.592 635 434.167 635H449.333Z" fill="white" fill-opacity="0.05"/>
<path d="M361.071 614C360.522 614 359.995 614.216 359.607 614.6C359.218 614.985 359 615.506 359 616.05C359 616.594 359.218 617.115 359.607 617.5C359.995 617.884 360.522 618.1 361.071 618.1H383.857C384.407 618.1 384.933 617.884 385.322 617.5C385.71 617.115 385.929 616.594 385.929 616.05C385.929 615.506 385.71 614.985 385.322 614.6C384.933 614.216 384.407 614 383.857 614H361.071ZM373.5 626.3C372.951 626.3 372.424 626.516 372.035 626.9C371.647 627.285 371.429 627.806 371.429 628.35C371.429 628.894 371.647 629.415 372.035 629.8C372.424 630.184 372.951 630.4 373.5 630.4H390.071C390.621 630.4 391.148 630.184 391.536 629.8C391.925 629.415 392.143 628.894 392.143 628.35C392.143 627.806 391.925 627.285 391.536 626.9C391.148 626.516 390.621 626.3 390.071 626.3H373.5ZM367.286 640.65C367.286 640.106 367.504 639.585 367.892 639.2C368.281 638.816 368.808 638.6 369.357 638.6H402.5C403.049 638.6 403.576 638.816 403.965 639.2C404.353 639.585 404.571 640.106 404.571 640.65C404.571 641.194 404.353 641.715 403.965 642.1C403.576 642.484 403.049 642.7 402.5 642.7H369.357C368.808 642.7 368.281 642.484 367.892 642.1C367.504 641.715 367.286 641.194 367.286 640.65ZM361.071 650.9C360.522 650.9 359.995 651.116 359.607 651.5C359.218 651.885 359 652.406 359 652.95C359 653.494 359.218 654.015 359.607 654.4C359.995 654.784 360.522 655 361.071 655H392.143C392.692 655 393.219 654.784 393.608 654.4C393.996 654.015 394.214 653.494 394.214 652.95C394.214 652.406 393.996 651.885 393.608 651.5C393.219 651.116 392.692 650.9 392.143 650.9H361.071ZM398.357 628.35C398.357 627.806 398.575 627.285 398.964 626.9C399.352 626.516 399.879 626.3 400.429 626.3H410.786C411.335 626.3 411.862 626.516 412.25 626.9C412.639 627.285 412.857 627.806 412.857 628.35C412.857 628.894 412.639 629.415 412.25 629.8C411.862 630.184 411.335 630.4 410.786 630.4H400.429C399.879 630.4 399.352 630.184 398.964 629.8C398.575 629.415 398.357 628.894 398.357 628.35ZM394.214 614C393.665 614 393.138 614.216 392.75 614.6C392.361 614.985 392.143 615.506 392.143 616.05C392.143 616.594 392.361 617.115 392.75 617.5C393.138 617.884 393.665 618.1 394.214 618.1H414.929C415.478 618.1 416.005 617.884 416.393 617.5C416.782 617.115 417 616.594 417 616.05C417 615.506 416.782 614.985 416.393 614.6C416.005 614.216 415.478 614 414.929 614H394.214Z" fill="white" fill-opacity="0.05"/>
<path d="M253.071 196C252.522 196 251.995 196.216 251.607 196.6C251.218 196.985 251 197.506 251 198.05C251 198.594 251.218 199.115 251.607 199.5C251.995 199.884 252.522 200.1 253.071 200.1H275.857C276.407 200.1 276.933 199.884 277.322 199.5C277.71 199.115 277.929 198.594 277.929 198.05C277.929 197.506 277.71 196.985 277.322 196.6C276.933 196.216 276.407 196 275.857 196H253.071ZM265.5 208.3C264.951 208.3 264.424 208.516 264.035 208.9C263.647 209.285 263.429 209.806 263.429 210.35C263.429 210.894 263.647 211.415 264.035 211.8C264.424 212.184 264.951 212.4 265.5 212.4H282.071C282.621 212.4 283.148 212.184 283.536 211.8C283.925 211.415 284.143 210.894 284.143 210.35C284.143 209.806 283.925 209.285 283.536 208.9C283.148 208.516 282.621 208.3 282.071 208.3H265.5ZM259.286 222.65C259.286 222.106 259.504 221.585 259.892 221.2C260.281 220.816 260.808 220.6 261.357 220.6H294.5C295.049 220.6 295.576 220.816 295.965 221.2C296.353 221.585 296.571 222.106 296.571 222.65C296.571 223.194 296.353 223.715 295.965 224.1C295.576 224.484 295.049 224.7 294.5 224.7H261.357C260.808 224.7 260.281 224.484 259.892 224.1C259.504 223.715 259.286 223.194 259.286 222.65ZM253.071 232.9C252.522 232.9 251.995 233.116 251.607 233.5C251.218 233.885 251 234.406 251 234.95C251 235.494 251.218 236.015 251.607 236.4C251.995 236.784 252.522 237 253.071 237H284.143C284.692 237 285.219 236.784 285.608 236.4C285.996 236.015 286.214 235.494 286.214 234.95C286.214 234.406 285.996 233.885 285.608 233.5C285.219 233.116 284.692 232.9 284.143 232.9H253.071ZM290.357 210.35C290.357 209.806 290.575 209.285 290.964 208.9C291.352 208.516 291.879 208.3 292.429 208.3H302.786C303.335 208.3 303.862 208.516 304.25 208.9C304.639 209.285 304.857 209.806 304.857 210.35C304.857 210.894 304.639 211.415 304.25 211.8C303.862 212.184 303.335 212.4 302.786 212.4H292.429C291.879 212.4 291.352 212.184 290.964 211.8C290.575 211.415 290.357 210.894 290.357 210.35ZM286.214 196C285.665 196 285.138 196.216 284.75 196.6C284.361 196.985 284.143 197.506 284.143 198.05C284.143 198.594 284.361 199.115 284.75 199.5C285.138 199.884 285.665 200.1 286.214 200.1H306.929C307.478 200.1 308.005 199.884 308.393 199.5C308.782 199.115 309 198.594 309 198.05C309 197.506 308.782 196.985 308.393 196.6C308.005 196.216 307.478 196 306.929 196H286.214Z" fill="white" fill-opacity="0.05"/>
<path d="M412.731 730.882V722.899C412.314 718.566 409.561 715.28 407.017 711.323M433.161 730.882V726.093C446.298 726.093 444.837 710.127 444.837 710.127C444.837 710.127 450.675 710.127 450.675 703.74L444.837 694.161C444.837 681.387 434.914 675.116 424.407 675.002C418.521 674.938 413.82 676.483 410.307 679.19" stroke="white" stroke-opacity="0.05" stroke-width="1.5" stroke-linecap="round" stroke-linejoin="round"/>
<path d="M427.681 688.222L433.211 695.083L427.681 701.943M405.561 688.222L400.031 695.083L405.561 701.943M419.386 685.478L413.856 704.687" stroke="white" stroke-opacity="0.05" stroke-width="1.5" stroke-linecap="round" stroke-linejoin="round"/>
<path d="M304.731 312.882V304.899C304.314 300.566 301.561 297.28 299.017 293.323M325.161 312.882V308.093C338.298 308.093 336.837 292.127 336.837 292.127C336.837 292.127 342.675 292.127 342.675 285.74L336.837 276.161C336.837 263.387 326.914 257.116 316.407 257.002C310.521 256.938 305.82 258.483 302.307 261.19" stroke="white" stroke-opacity="0.05" stroke-width="1.5" stroke-linecap="round" stroke-linejoin="round"/>
<path d="M319.681 270.222L325.211 277.083L319.681 283.943M297.561 270.222L292.031 277.083L297.561 283.943M311.386 267.478L305.856 286.687" stroke="white" stroke-opacity="0.05" stroke-width="1.5" stroke-linecap="round" stroke-linejoin="round"/>
<path d="M451 513.625C451 509.136 447.457 505.5 443.083 505.5C438.709 505.5 435.167 509.136 435.167 513.625C435.167 517.322 437.571 520.44 440.857 521.425C440.797 523.06 440.441 524.32 439.768 525.173C438.244 527.123 434.89 527.448 431.337 527.783C428.546 528.047 425.657 528.331 423.292 529.499V514.874C426.508 513.838 428.833 510.761 428.833 507.125C428.833 502.636 425.291 499 420.917 499C416.543 499 413 502.636 413 507.125C413 510.761 415.326 513.838 418.542 514.874V535.116C415.326 536.162 413 539.239 413 542.875C413 547.364 416.543 551 420.917 551C425.291 551 428.833 547.364 428.833 542.875C428.833 539.422 426.735 536.466 423.767 535.298C424.073 534.77 424.539 534.303 425.241 533.938C426.844 533.105 429.239 532.881 431.782 532.638C435.958 532.241 440.689 531.784 443.479 528.23C444.865 526.462 445.567 524.187 445.617 521.334C448.744 520.237 451 517.2 451 513.625ZM420.917 505.5C421.788 505.5 422.5 506.231 422.5 507.125C422.5 508.019 421.788 508.75 420.917 508.75C420.046 508.75 419.333 508.019 419.333 507.125C419.333 506.231 420.046 505.5 420.917 505.5ZM420.917 544.5C420.046 544.5 419.333 543.769 419.333 542.875C419.333 541.981 420.046 541.25 420.917 541.25C421.788 541.25 422.5 541.981 422.5 542.875C422.5 543.769 421.788 544.5 420.917 544.5ZM443.083 512C443.954 512 444.667 512.731 444.667 513.625C444.667 514.519 443.954 515.25 443.083 515.25C442.213 515.25 441.5 514.519 441.5 513.625C441.5 512.731 442.213 512 443.083 512Z" fill="white" fill-opacity="0.05"/>
<g clip-path="url(#clip2_336_1983)">
<path d="M331 626.625C331 622.136 327.457 618.5 323.083 618.5C318.709 618.5 315.167 622.136 315.167 626.625C315.167 630.322 317.571 633.44 320.857 634.425C320.797 636.06 320.441 637.32 319.768 638.173C318.244 640.123 314.89 640.448 311.337 640.783C308.546 641.047 305.657 641.331 303.292 642.499V627.874C306.508 626.838 308.833 623.761 308.833 620.125C308.833 615.636 305.291 612 300.917 612C296.543 612 293 615.636 293 620.125C293 623.761 295.326 626.838 298.542 627.874V648.116C295.326 649.162 293 652.239 293 655.875C293 660.364 296.543 664 300.917 664C305.291 664 308.833 660.364 308.833 655.875C308.833 652.422 306.735 649.466 303.767 648.298C304.073 647.77 304.539 647.303 305.241 646.938C306.844 646.105 309.239 645.881 311.782 645.638C315.958 645.241 320.689 644.784 323.479 641.23C324.865 639.462 325.567 637.187 325.617 634.334C328.744 633.237 331 630.2 331 626.625ZM300.917 618.5C301.788 618.5 302.5 619.231 302.5 620.125C302.5 621.019 301.788 621.75 300.917 621.75C300.046 621.75 299.333 621.019 299.333 620.125C299.333 619.231 300.046 618.5 300.917 618.5ZM300.917 657.5C300.046 657.5 299.333 656.769 299.333 655.875C299.333 654.981 300.046 654.25 300.917 654.25C301.788 654.25 302.5 654.981 302.5 655.875C302.5 656.769 301.788 657.5 300.917 657.5ZM323.083 625C323.954 625 324.667 625.731 324.667 626.625C324.667 627.519 323.954 628.25 323.083 628.25C322.213 628.25 321.5 627.519 321.5 626.625C321.5 625.731 322.213 625 323.083 625Z" fill="white" fill-opacity="0.05"/>
</g>
<path d="M124 691.625C124 687.136 120.457 683.5 116.083 683.5C111.709 683.5 108.167 687.136 108.167 691.625C108.167 695.322 110.571 698.44 113.857 699.425C113.797 701.06 113.441 702.32 112.768 703.173C111.244 705.123 107.89 705.448 104.337 705.783C101.546 706.047 98.6568 706.331 96.2917 707.499V692.874C99.5078 691.838 101.833 688.761 101.833 685.125C101.833 680.636 98.2906 677 93.9167 677C89.5427 677 86 680.636 86 685.125C86 688.761 88.3255 691.838 91.5417 692.874V713.116C88.3255 714.162 86 717.239 86 720.875C86 725.364 89.5427 729 93.9167 729C98.2906 729 101.833 725.364 101.833 720.875C101.833 717.422 99.7354 714.466 96.7667 713.298C97.0734 712.77 97.5385 712.303 98.2411 711.938C99.8443 711.105 102.239 710.881 104.782 710.638C108.958 710.241 113.689 709.784 116.479 706.23C117.865 704.462 118.567 702.187 118.617 699.334C121.744 698.237 124 695.2 124 691.625ZM93.9167 683.5C94.7875 683.5 95.5 684.231 95.5 685.125C95.5 686.019 94.7875 686.75 93.9167 686.75C93.0458 686.75 92.3333 686.019 92.3333 685.125C92.3333 684.231 93.0458 683.5 93.9167 683.5ZM93.9167 722.5C93.0458 722.5 92.3333 721.769 92.3333 720.875C92.3333 719.981 93.0458 719.25 93.9167 719.25C94.7875 719.25 95.5 719.981 95.5 720.875C95.5 721.769 94.7875 722.5 93.9167 722.5ZM116.083 690C116.954 690 117.667 690.731 117.667 691.625C117.667 692.519 116.954 693.25 116.083 693.25C115.213 693.25 114.5 692.519 114.5 691.625C114.5 690.731 115.213 690 116.083 690Z" fill="white" fill-opacity="0.05"/>
<path d="M261 576H238C237.447 576 237 576.447 237 577V600C237 600.553 237.447 601 238 601H261C261.553 601 262 600.553 262 600V577C262 576.447 261.553 576 261 576ZM249.534 588.691L243.534 593.722C243.372 593.859 243.125 593.744 243.125 593.531V591.572C243.125 591.5 243.159 591.428 243.216 591.381L246.647 588.5L243.216 585.619C243.187 585.596 243.164 585.567 243.148 585.534C243.132 585.501 243.124 585.465 243.125 585.428V583.469C243.125 583.256 243.372 583.141 243.534 583.278L249.534 588.306C249.656 588.406 249.656 588.591 249.534 588.691ZM255.875 593.531C255.875 593.669 255.769 593.781 255.641 593.781H249.859C249.731 593.781 249.625 593.669 249.625 593.531V592.031C249.625 591.894 249.731 591.781 249.859 591.781H255.641C255.769 591.781 255.875 591.894 255.875 592.031V593.531Z" fill="white" fill-opacity="0.05"/>
<path d="M106.393 343.332V337.428C106.085 334.222 104.048 331.792 102.167 328.865M121.504 343.332V339.79C131.22 339.79 130.139 327.981 130.139 327.981C130.139 327.981 134.457 327.981 134.457 323.257L130.139 316.172C130.139 306.724 122.8 302.086 115.029 302.001C110.675 301.954 107.199 303.097 104.6 305.099" stroke="white" stroke-opacity="0.05" stroke-width="1.5" stroke-linecap="round" stroke-linejoin="round"/>
<path d="M117.451 311.779L121.541 316.854L117.451 321.928M101.09 311.779L97 316.854L101.09 321.928M111.315 309.75L107.225 323.958" stroke="white" stroke-opacity="0.05" stroke-width="1.5" stroke-linecap="round" stroke-linejoin="round"/>
<path d="M388.76 215H360.24C359.554 215 359 215.554 359 216.24V244.76C359 245.446 359.554 246 360.24 246H388.76C389.446 246 390 245.446 390 244.76V216.24C390 215.554 389.446 215 388.76 215ZM374.543 230.736L367.103 236.975C366.901 237.146 366.595 237.002 366.595 236.739V234.309C366.595 234.22 366.638 234.131 366.707 234.073L370.962 230.5L366.707 226.927C366.672 226.899 366.643 226.863 366.624 226.822C366.604 226.781 366.594 226.736 366.595 226.691V224.261C366.595 223.998 366.901 223.854 367.103 224.025L374.543 230.26C374.694 230.384 374.694 230.612 374.543 230.736ZM382.405 236.739C382.405 236.909 382.273 237.049 382.114 237.049H374.946C374.787 237.049 374.655 236.909 374.655 236.739V234.879C374.655 234.708 374.787 234.569 374.946 234.569H382.114C382.273 234.569 382.405 234.708 382.405 234.879V236.739Z" fill="white" fill-opacity="0.05"/>
<g clip-path="url(#clip3_336_1983)">
<path d="M315 393.938C315 389.966 311.83 386.75 307.917 386.75C304.003 386.75 300.833 389.966 300.833 393.938C300.833 397.208 302.985 399.966 305.924 400.838C305.871 402.284 305.553 403.398 304.951 404.153C303.587 405.878 300.585 406.165 297.407 406.462C294.91 406.695 292.324 406.947 290.208 407.98V395.043C293.086 394.126 295.167 391.404 295.167 388.188C295.167 384.216 291.997 381 288.083 381C284.17 381 281 384.216 281 388.188C281 391.404 283.081 394.126 285.958 395.043V412.948C283.081 413.874 281 416.596 281 419.812C281 423.784 284.17 427 288.083 427C291.997 427 295.167 423.784 295.167 419.812C295.167 416.758 293.29 414.143 290.633 413.11C290.908 412.643 291.324 412.23 291.953 411.906C293.387 411.17 295.53 410.972 297.805 410.756C301.542 410.406 305.774 410.002 308.271 406.857C309.51 405.294 310.139 403.281 310.183 400.757C312.981 399.786 315 397.1 315 393.938ZM288.083 386.75C288.862 386.75 289.5 387.397 289.5 388.188C289.5 388.978 288.862 389.625 288.083 389.625C287.304 389.625 286.667 388.978 286.667 388.188C286.667 387.397 287.304 386.75 288.083 386.75ZM288.083 421.25C287.304 421.25 286.667 420.603 286.667 419.812C286.667 419.022 287.304 418.375 288.083 418.375C288.862 418.375 289.5 419.022 289.5 419.812C289.5 420.603 288.862 421.25 288.083 421.25ZM307.917 392.5C308.696 392.5 309.333 393.147 309.333 393.938C309.333 394.728 308.696 395.375 307.917 395.375C307.137 395.375 306.5 394.728 306.5 393.938C306.5 393.147 307.137 392.5 307.917 392.5Z" fill="white" fill-opacity="0.05"/>
</g>
<path d="M142.643 169C142.207 169 141.789 169.169 141.481 169.469C141.173 169.769 141 170.176 141 170.6C141 171.024 141.173 171.431 141.481 171.731C141.789 172.031 142.207 172.2 142.643 172.2H160.714C161.15 172.2 161.568 172.031 161.876 171.731C162.184 171.431 162.357 171.024 162.357 170.6C162.357 170.176 162.184 169.769 161.876 169.469C161.568 169.169 161.15 169 160.714 169H142.643ZM152.5 178.6C152.064 178.6 151.646 178.769 151.338 179.069C151.03 179.369 150.857 179.776 150.857 180.2C150.857 180.624 151.03 181.031 151.338 181.331C151.646 181.631 152.064 181.8 152.5 181.8H165.643C166.079 181.8 166.496 181.631 166.805 181.331C167.113 181.031 167.286 180.624 167.286 180.2C167.286 179.776 167.113 179.369 166.805 179.069C166.496 178.769 166.079 178.6 165.643 178.6H152.5ZM147.571 189.8C147.571 189.376 147.745 188.969 148.053 188.669C148.361 188.369 148.779 188.2 149.214 188.2H175.5C175.936 188.2 176.354 188.369 176.662 188.669C176.97 188.969 177.143 189.376 177.143 189.8C177.143 190.224 176.97 190.631 176.662 190.931C176.354 191.231 175.936 191.4 175.5 191.4H149.214C148.779 191.4 148.361 191.231 148.053 190.931C147.745 190.631 147.571 190.224 147.571 189.8ZM142.643 197.8C142.207 197.8 141.789 197.969 141.481 198.269C141.173 198.569 141 198.976 141 199.4C141 199.824 141.173 200.231 141.481 200.531C141.789 200.831 142.207 201 142.643 201H167.286C167.721 201 168.139 200.831 168.447 200.531C168.755 200.231 168.929 199.824 168.929 199.4C168.929 198.976 168.755 198.569 168.447 198.269C168.139 197.969 167.721 197.8 167.286 197.8H142.643ZM172.214 180.2C172.214 179.776 172.387 179.369 172.695 179.069C173.004 178.769 173.421 178.6 173.857 178.6H182.071C182.507 178.6 182.925 178.769 183.233 179.069C183.541 179.369 183.714 179.776 183.714 180.2C183.714 180.624 183.541 181.031 183.233 181.331C182.925 181.631 182.507 181.8 182.071 181.8H173.857C173.421 181.8 173.004 181.631 172.695 181.331C172.387 181.031 172.214 180.624 172.214 180.2ZM168.929 169C168.493 169 168.075 169.169 167.767 169.469C167.459 169.769 167.286 170.176 167.286 170.6C167.286 171.024 167.459 171.431 167.767 171.731C168.075 172.031 168.493 172.2 168.929 172.2H185.357C185.793 172.2 186.211 172.031 186.519 171.731C186.827 171.431 187 171.024 187 170.6C187 170.176 186.827 169.769 186.519 169.469C186.211 169.169 185.793 169 185.357 169H168.929Z" fill="white" fill-opacity="0.05"/>
<path d="M137.643 681C137.207 681 136.789 681.174 136.481 681.483C136.173 681.793 136 682.212 136 682.65C136 683.088 136.173 683.507 136.481 683.817C136.789 684.126 137.207 684.3 137.643 684.3H155.714C156.15 684.3 156.568 684.126 156.876 683.817C157.184 683.507 157.357 683.088 157.357 682.65C157.357 682.212 157.184 681.793 156.876 681.483C156.568 681.174 156.15 681 155.714 681H137.643ZM147.5 690.9C147.064 690.9 146.646 691.074 146.338 691.383C146.03 691.693 145.857 692.112 145.857 692.55C145.857 692.988 146.03 693.407 146.338 693.717C146.646 694.026 147.064 694.2 147.5 694.2H160.643C161.079 694.2 161.496 694.026 161.805 693.717C162.113 693.407 162.286 692.988 162.286 692.55C162.286 692.112 162.113 691.693 161.805 691.383C161.496 691.074 161.079 690.9 160.643 690.9H147.5ZM142.571 702.45C142.571 702.012 142.745 701.593 143.053 701.283C143.361 700.974 143.779 700.8 144.214 700.8H170.5C170.936 700.8 171.354 700.974 171.662 701.283C171.97 701.593 172.143 702.012 172.143 702.45C172.143 702.888 171.97 703.307 171.662 703.617C171.354 703.926 170.936 704.1 170.5 704.1H144.214C143.779 704.1 143.361 703.926 143.053 703.617C142.745 703.307 142.571 702.888 142.571 702.45ZM137.643 710.7C137.207 710.7 136.789 710.874 136.481 711.183C136.173 711.493 136 711.912 136 712.35C136 712.788 136.173 713.207 136.481 713.517C136.789 713.826 137.207 714 137.643 714H162.286C162.721 714 163.139 713.826 163.447 713.517C163.755 713.207 163.929 712.788 163.929 712.35C163.929 711.912 163.755 711.493 163.447 711.183C163.139 710.874 162.721 710.7 162.286 710.7H137.643ZM167.214 692.55C167.214 692.112 167.387 691.693 167.695 691.383C168.004 691.074 168.421 690.9 168.857 690.9H177.071C177.507 690.9 177.925 691.074 178.233 691.383C178.541 691.693 178.714 692.112 178.714 692.55C178.714 692.988 178.541 693.407 178.233 693.717C177.925 694.026 177.507 694.2 177.071 694.2H168.857C168.421 694.2 168.004 694.026 167.695 693.717C167.387 693.407 167.214 692.988 167.214 692.55ZM163.929 681C163.493 681 163.075 681.174 162.767 681.483C162.459 681.793 162.286 682.212 162.286 682.65C162.286 683.088 162.459 683.507 162.767 683.817C163.075 684.126 163.493 684.3 163.929 684.3H180.357C180.793 684.3 181.211 684.126 181.519 683.817C181.827 683.507 182 683.088 182 682.65C182 682.212 181.827 681.793 181.519 681.483C181.211 681.174 180.793 681 180.357 681H163.929Z" fill="white" fill-opacity="0.05"/>
<path d="M368.5 544C367 544 364.75 544.729 364.75 547.646V554.208C364.75 556.396 361 557.854 361 557.854C361 557.854 364.75 559.312 364.75 561.5V569.521C364.75 572.437 367 573.167 368.5 573.167M380.5 544C382 544 384.25 544.729 384.25 547.646V554.208C384.25 556.396 388 557.854 388 557.854C388 557.854 384.25 559.312 384.25 561.5V569.521C384.25 572.437 382 573.167 380.5 573.167" stroke="white" stroke-opacity="0.05" stroke-width="4" stroke-linecap="round" stroke-linejoin="round"/>
<path d="M425.167 583.083L419 589.25L425.167 595.417" stroke="white" stroke-opacity="0.05" stroke-width="2" stroke-linecap="round" stroke-linejoin="round"/>
<path d="M430.562 598.5L435.187 580" stroke="white" stroke-opacity="0.05" stroke-width="2" stroke-linecap="round"/>
<path d="M440.583 583.083L446.75 589.25L440.583 595.417" stroke="white" stroke-opacity="0.05" stroke-width="2" stroke-linecap="round" stroke-linejoin="round"/>
<path d="M212.56 714H202.44C202.197 714 202 714.197 202 714.44V724.56C202 724.803 202.197 725 202.44 725H212.56C212.803 725 213 724.803 213 724.56V714.44C213 714.197 212.803 714 212.56 714ZM207.515 719.584L204.875 721.798C204.804 721.858 204.695 721.807 204.695 721.714V720.852C204.695 720.82 204.71 720.788 204.735 720.768L206.245 719.5L204.735 718.232C204.722 718.222 204.712 718.21 204.705 718.195C204.698 718.18 204.695 718.164 204.695 718.148V717.286C204.695 717.193 204.804 717.142 204.875 717.202L207.515 719.415C207.569 719.459 207.569 719.54 207.515 719.584ZM210.305 721.714C210.305 721.774 210.258 721.824 210.202 721.824H207.658C207.602 721.824 207.555 721.774 207.555 721.714V721.054C207.555 720.993 207.602 720.944 207.658 720.944H210.202C210.258 720.944 210.305 720.993 210.305 721.054V721.714Z" fill="white" fill-opacity="0.05"/>
<path d="M208.5 656C207 656 204.75 656.729 204.75 659.646V666.208C204.75 668.396 201 669.854 201 669.854C201 669.854 204.75 671.312 204.75 673.5V681.521C204.75 684.437 207 685.167 208.5 685.167M220.5 656C222 656 224.25 656.729 224.25 659.646V666.208C224.25 668.396 228 669.854 228 669.854C228 669.854 224.25 671.312 224.25 673.5V681.521C224.25 684.437 222 685.167 220.5 685.167" stroke="white" stroke-opacity="0.05" stroke-width="4" stroke-linecap="round" stroke-linejoin="round"/>
<path d="M429.5 403C428 403 425.75 403.729 425.75 406.646V413.208C425.75 415.396 422 416.854 422 416.854C422 416.854 425.75 418.312 425.75 420.5V428.521C425.75 431.437 428 432.167 429.5 432.167M441.5 403C443 403 445.25 403.729 445.25 406.646V413.208C445.25 415.396 449 416.854 449 416.854C449 416.854 445.25 418.312 445.25 420.5V428.521C445.25 431.437 443 432.167 441.5 432.167" stroke="white" stroke-opacity="0.05" stroke-width="4" stroke-linecap="round" stroke-linejoin="round"/>
<path d="M100.5 238C99 238 96.75 238.729 96.75 241.646V248.208C96.75 250.396 93 251.854 93 251.854C93 251.854 96.75 253.312 96.75 255.5V263.521C96.75 266.437 99 267.167 100.5 267.167M112.5 238C114 238 116.25 238.729 116.25 241.646V248.208C116.25 250.396 120 251.854 120 251.854C120 251.854 116.25 253.312 116.25 255.5V263.521C116.25 266.437 114 267.167 112.5 267.167" stroke="white" stroke-opacity="0.05" stroke-width="4" stroke-linecap="round" stroke-linejoin="round"/>
<path d="M271.643 534C271.207 534 270.789 534.174 270.481 534.483C270.173 534.793 270 535.212 270 535.65C270 536.088 270.173 536.507 270.481 536.817C270.789 537.126 271.207 537.3 271.643 537.3H289.714C290.15 537.3 290.568 537.126 290.876 536.817C291.184 536.507 291.357 536.088 291.357 535.65C291.357 535.212 291.184 534.793 290.876 534.483C290.568 534.174 290.15 534 289.714 534H271.643ZM281.5 543.9C281.064 543.9 280.646 544.074 280.338 544.383C280.03 544.693 279.857 545.112 279.857 545.55C279.857 545.988 280.03 546.407 280.338 546.717C280.646 547.026 281.064 547.2 281.5 547.2H294.643C295.079 547.2 295.496 547.026 295.805 546.717C296.113 546.407 296.286 545.988 296.286 545.55C296.286 545.112 296.113 544.693 295.805 544.383C295.496 544.074 295.079 543.9 294.643 543.9H281.5ZM276.571 555.45C276.571 555.012 276.745 554.593 277.053 554.283C277.361 553.974 277.779 553.8 278.214 553.8H304.5C304.936 553.8 305.354 553.974 305.662 554.283C305.97 554.593 306.143 555.012 306.143 555.45C306.143 555.888 305.97 556.307 305.662 556.617C305.354 556.926 304.936 557.1 304.5 557.1H278.214C277.779 557.1 277.361 556.926 277.053 556.617C276.745 556.307 276.571 555.888 276.571 555.45ZM271.643 563.7C271.207 563.7 270.789 563.874 270.481 564.183C270.173 564.493 270 564.912 270 565.35C270 565.788 270.173 566.207 270.481 566.517C270.789 566.826 271.207 567 271.643 567H296.286C296.721 567 297.139 566.826 297.447 566.517C297.755 566.207 297.929 565.788 297.929 565.35C297.929 564.912 297.755 564.493 297.447 564.183C297.139 563.874 296.721 563.7 296.286 563.7H271.643ZM301.214 545.55C301.214 545.112 301.387 544.693 301.695 544.383C302.004 544.074 302.421 543.9 302.857 543.9H311.071C311.507 543.9 311.925 544.074 312.233 544.383C312.541 544.693 312.714 545.112 312.714 545.55C312.714 545.988 312.541 546.407 312.233 546.717C311.925 547.026 311.507 547.2 311.071 547.2H302.857C302.421 547.2 302.004 547.026 301.695 546.717C301.387 546.407 301.214 545.988 301.214 545.55ZM297.929 534C297.493 534 297.075 534.174 296.767 534.483C296.459 534.793 296.286 535.212 296.286 535.65C296.286 536.088 296.459 536.507 296.767 536.817C297.075 537.126 297.493 537.3 297.929 537.3H314.357C314.793 537.3 315.211 537.126 315.519 536.817C315.827 536.507 316 536.088 316 535.65C316 535.212 315.827 534.793 315.519 534.483C315.211 534.174 314.793 534 314.357 534H297.929Z" fill="white" fill-opacity="0.05"/>
<path d="M92.2143 487C91.8922 487 91.5834 487.132 91.3557 487.366C91.1279 487.601 91 487.918 91 488.25C91 488.582 91.1279 488.899 91.3557 489.134C91.5834 489.368 91.8922 489.5 92.2143 489.5H105.571C105.893 489.5 106.202 489.368 106.43 489.134C106.658 488.899 106.786 488.582 106.786 488.25C106.786 487.918 106.658 487.601 106.43 487.366C106.202 487.132 105.893 487 105.571 487H92.2143ZM99.5 494.5C99.178 494.5 98.8691 494.632 98.6414 494.866C98.4136 495.101 98.2857 495.418 98.2857 495.75C98.2857 496.082 98.4136 496.399 98.6414 496.634C98.8691 496.868 99.178 497 99.5 497H109.214C109.536 497 109.845 496.868 110.073 496.634C110.301 496.399 110.429 496.082 110.429 495.75C110.429 495.418 110.301 495.101 110.073 494.866C109.845 494.632 109.536 494.5 109.214 494.5H99.5ZM95.8571 503.25C95.8571 502.918 95.9851 502.601 96.2128 502.366C96.4405 502.132 96.7494 502 97.0714 502H116.5C116.822 502 117.131 502.132 117.359 502.366C117.586 502.601 117.714 502.918 117.714 503.25C117.714 503.582 117.586 503.899 117.359 504.134C117.131 504.368 116.822 504.5 116.5 504.5H97.0714C96.7494 504.5 96.4405 504.368 96.2128 504.134C95.9851 503.899 95.8571 503.582 95.8571 503.25ZM92.2143 509.5C91.8922 509.5 91.5834 509.632 91.3557 509.866C91.1279 510.101 91 510.418 91 510.75C91 511.082 91.1279 511.399 91.3557 511.634C91.5834 511.868 91.8922 512 92.2143 512H110.429C110.751 512 111.059 511.868 111.287 511.634C111.515 511.399 111.643 511.082 111.643 510.75C111.643 510.418 111.515 510.101 111.287 509.866C111.059 509.632 110.751 509.5 110.429 509.5H92.2143ZM114.071 495.75C114.071 495.418 114.199 495.101 114.427 494.866C114.655 494.632 114.964 494.5 115.286 494.5H121.357C121.679 494.5 121.988 494.632 122.216 494.866C122.443 495.101 122.571 495.418 122.571 495.75C122.571 496.082 122.443 496.399 122.216 496.634C121.988 496.868 121.679 497 121.357 497H115.286C114.964 497 114.655 496.868 114.427 496.634C114.199 496.399 114.071 496.082 114.071 495.75ZM111.643 487C111.321 487 111.012 487.132 110.784 487.366C110.557 487.601 110.429 487.918 110.429 488.25C110.429 488.582 110.557 488.899 110.784 489.134C111.012 489.368 111.321 489.5 111.643 489.5H123.786C124.108 489.5 124.417 489.368 124.644 489.134C124.872 488.899 125 488.582 125 488.25C125 487.918 124.872 487.601 124.644 487.366C124.417 487.132 124.108 487 123.786 487H111.643Z" fill="white" fill-opacity="0.05"/>
<path d="M387.643 331C387.207 331 386.789 331.174 386.481 331.483C386.173 331.793 386 332.212 386 332.65C386 333.088 386.173 333.507 386.481 333.817C386.789 334.126 387.207 334.3 387.643 334.3H405.714C406.15 334.3 406.568 334.126 406.876 333.817C407.184 333.507 407.357 333.088 407.357 332.65C407.357 332.212 407.184 331.793 406.876 331.483C406.568 331.174 406.15 331 405.714 331H387.643ZM397.5 340.9C397.064 340.9 396.646 341.074 396.338 341.383C396.03 341.693 395.857 342.112 395.857 342.55C395.857 342.988 396.03 343.407 396.338 343.717C396.646 344.026 397.064 344.2 397.5 344.2H410.643C411.079 344.2 411.496 344.026 411.805 343.717C412.113 343.407 412.286 342.988 412.286 342.55C412.286 342.112 412.113 341.693 411.805 341.383C411.496 341.074 411.079 340.9 410.643 340.9H397.5ZM392.571 352.45C392.571 352.012 392.745 351.593 393.053 351.283C393.361 350.974 393.779 350.8 394.214 350.8H420.5C420.936 350.8 421.354 350.974 421.662 351.283C421.97 351.593 422.143 352.012 422.143 352.45C422.143 352.888 421.97 353.307 421.662 353.617C421.354 353.926 420.936 354.1 420.5 354.1H394.214C393.779 354.1 393.361 353.926 393.053 353.617C392.745 353.307 392.571 352.888 392.571 352.45ZM387.643 360.7C387.207 360.7 386.789 360.874 386.481 361.183C386.173 361.493 386 361.912 386 362.35C386 362.788 386.173 363.207 386.481 363.517C386.789 363.826 387.207 364 387.643 364H412.286C412.721 364 413.139 363.826 413.447 363.517C413.755 363.207 413.929 362.788 413.929 362.35C413.929 361.912 413.755 361.493 413.447 361.183C413.139 360.874 412.721 360.7 412.286 360.7H387.643ZM417.214 342.55C417.214 342.112 417.387 341.693 417.695 341.383C418.004 341.074 418.421 340.9 418.857 340.9H427.071C427.507 340.9 427.925 341.074 428.233 341.383C428.541 341.693 428.714 342.112 428.714 342.55C428.714 342.988 428.541 343.407 428.233 343.717C427.925 344.026 427.507 344.2 427.071 344.2H418.857C418.421 344.2 418.004 344.026 417.695 343.717C417.387 343.407 417.214 342.988 417.214 342.55ZM413.929 331C413.493 331 413.075 331.174 412.767 331.483C412.459 331.793 412.286 332.212 412.286 332.65C412.286 333.088 412.459 333.507 412.767 333.817C413.075 334.126 413.493 334.3 413.929 334.3H430.357C430.793 334.3 431.211 334.126 431.519 333.817C431.827 333.507 432 333.088 432 332.65C432 332.212 431.827 331.793 431.519 331.483C431.211 331.174 430.793 331 430.357 331H413.929Z" fill="white" fill-opacity="0.05"/>
<path d="M192.643 381C192.207 381 191.789 381.174 191.481 381.483C191.173 381.793 191 382.212 191 382.65C191 383.088 191.173 383.507 191.481 383.817C191.789 384.126 192.207 384.3 192.643 384.3H210.714C211.15 384.3 211.568 384.126 211.876 383.817C212.184 383.507 212.357 383.088 212.357 382.65C212.357 382.212 212.184 381.793 211.876 381.483C211.568 381.174 211.15 381 210.714 381H192.643ZM202.5 390.9C202.064 390.9 201.646 391.074 201.338 391.383C201.03 391.693 200.857 392.112 200.857 392.55C200.857 392.988 201.03 393.407 201.338 393.717C201.646 394.026 202.064 394.2 202.5 394.2H215.643C216.079 394.2 216.496 394.026 216.805 393.717C217.113 393.407 217.286 392.988 217.286 392.55C217.286 392.112 217.113 391.693 216.805 391.383C216.496 391.074 216.079 390.9 215.643 390.9H202.5ZM197.571 402.45C197.571 402.012 197.745 401.593 198.053 401.283C198.361 400.974 198.779 400.8 199.214 400.8H225.5C225.936 400.8 226.354 400.974 226.662 401.283C226.97 401.593 227.143 402.012 227.143 402.45C227.143 402.888 226.97 403.307 226.662 403.617C226.354 403.926 225.936 404.1 225.5 404.1H199.214C198.779 404.1 198.361 403.926 198.053 403.617C197.745 403.307 197.571 402.888 197.571 402.45ZM192.643 410.7C192.207 410.7 191.789 410.874 191.481 411.183C191.173 411.493 191 411.912 191 412.35C191 412.788 191.173 413.207 191.481 413.517C191.789 413.826 192.207 414 192.643 414H217.286C217.721 414 218.139 413.826 218.447 413.517C218.755 413.207 218.929 412.788 218.929 412.35C218.929 411.912 218.755 411.493 218.447 411.183C218.139 410.874 217.721 410.7 217.286 410.7H192.643ZM222.214 392.55C222.214 392.112 222.387 391.693 222.695 391.383C223.004 391.074 223.421 390.9 223.857 390.9H232.071C232.507 390.9 232.925 391.074 233.233 391.383C233.541 391.693 233.714 392.112 233.714 392.55C233.714 392.988 233.541 393.407 233.233 393.717C232.925 394.026 232.507 394.2 232.071 394.2H223.857C223.421 394.2 223.004 394.026 222.695 393.717C222.387 393.407 222.214 392.988 222.214 392.55ZM218.929 381C218.493 381 218.075 381.174 217.767 381.483C217.459 381.793 217.286 382.212 217.286 382.65C217.286 383.088 217.459 383.507 217.767 383.817C218.075 384.126 218.493 384.3 218.929 384.3H235.357C235.793 384.3 236.211 384.126 236.519 383.817C236.827 383.507 237 383.088 237 382.65C237 382.212 236.827 381.793 236.519 381.483C236.211 381.174 235.793 381 235.357 381H218.929Z" fill="white" fill-opacity="0.05"/>
<path d="M399.12 427H378.88C378.393 427 378 427.393 378 427.88V448.12C378 448.607 378.393 449 378.88 449H399.12C399.607 449 400 448.607 400 448.12V427.88C400 427.393 399.607 427 399.12 427ZM389.03 438.168L383.75 442.595C383.607 442.716 383.39 442.614 383.39 442.427V440.703C383.39 440.64 383.42 440.577 383.47 440.536L386.489 438L383.47 435.464C383.444 435.445 383.424 435.419 383.41 435.39C383.396 435.361 383.39 435.329 383.39 435.297V433.572C383.39 433.385 383.607 433.284 383.75 433.405L389.03 437.829C389.137 437.917 389.137 438.08 389.03 438.168ZM394.61 442.427C394.61 442.548 394.516 442.647 394.404 442.647H389.316C389.203 442.647 389.11 442.548 389.11 442.427V441.107C389.11 440.986 389.203 440.887 389.316 440.887H394.404C394.516 440.887 394.61 440.986 394.61 441.107V442.427Z" fill="white" fill-opacity="0.05"/>
<path d="M85.5 381C84 381 81.75 381.729 81.75 384.646V391.208C81.75 393.396 78 394.854 78 394.854C78 394.854 81.75 396.312 81.75 398.5V406.521C81.75 409.437 84 410.167 85.5 410.167M97.5 381C99 381 101.25 381.729 101.25 384.646V391.208C101.25 393.396 105 394.854 105 394.854C105 394.854 101.25 396.312 101.25 398.5V406.521C101.25 409.437 99 410.167 97.5 410.167" stroke="white" stroke-opacity="0.05" stroke-width="4" stroke-linecap="round" stroke-linejoin="round"/>
<path d="M133.767 543.9L128.667 549L133.767 554.111L135.333 552.533L131.8 549L135.333 545.467M139.778 539C140.367 539 140.932 539.234 141.349 539.651C141.766 540.068 142 540.633 142 541.222V556.778C142 557.367 141.766 557.932 141.349 558.349C140.932 558.766 140.367 559 139.778 559H124.222C123.633 559 123.068 558.766 122.651 558.349C122.234 557.932 122 557.367 122 556.778V541.222C122 540.633 122.234 540.068 122.651 539.651C123.068 539.234 123.633 539 124.222 539H139.778Z" fill="white" fill-opacity="0.05"/>
<path d="M157.5 583C156 583 153.75 583.75 153.75 586.75V593.5C153.75 595.75 150 597.25 150 597.25C150 597.25 153.75 598.75 153.75 601V609.25C153.75 612.25 156 613 157.5 613M169.5 583C171 583 173.25 583.75 173.25 586.75V593.5C173.25 595.75 177 597.25 177 597.25C177 597.25 173.25 598.75 173.25 601V609.25C173.25 612.25 171 613 169.5 613" stroke="white" stroke-opacity="0.05" stroke-width="4" stroke-linecap="round" stroke-linejoin="round"/>
<path d="M191.164 542.082L185 548.245L191.164 554.409" stroke="white" stroke-opacity="0.05" stroke-width="2" stroke-linecap="round" stroke-linejoin="round"/>
<path d="M196.557 557.491L201.179 539" stroke="white" stroke-opacity="0.05" stroke-width="2" stroke-linecap="round"/>
<path d="M206.572 542.082L212.736 548.245L206.572 554.409" stroke="white" stroke-opacity="0.05" stroke-width="2" stroke-linecap="round" stroke-linejoin="round"/>
<path d="M239.394 487.785V481.88C239.086 478.675 237.049 476.245 235.167 473.318M254.505 487.785V484.243C264.221 484.243 263.14 472.434 263.14 472.434C263.14 472.434 267.458 472.434 267.458 467.71L263.14 460.625C263.14 451.177 255.801 446.539 248.03 446.454C243.676 446.407 240.2 447.55 237.601 449.552" stroke="white" stroke-opacity="0.05" stroke-width="1.5" stroke-linecap="round" stroke-linejoin="round"/>
<path d="M250.452 456.232L254.542 461.306L250.452 466.381M234.091 456.232L230.001 461.306L234.091 466.381M244.316 454.203L240.226 468.41" stroke="white" stroke-opacity="0.05" stroke-width="1.5" stroke-linecap="round" stroke-linejoin="round"/>
<path d="M250.11 652.103V648.55C249.924 646.621 248.699 645.158 247.566 643.397M259.204 652.103V649.972C265.052 649.972 264.401 642.865 264.401 642.865C264.401 642.865 267 642.865 267 640.022L264.401 635.758C264.401 630.071 259.984 627.28 255.307 627.229C252.687 627.201 250.595 627.889 249.031 629.094" stroke="white" stroke-opacity="0.05" stroke-width="1.5" stroke-linecap="round" stroke-linejoin="round"/>
<path d="M256.765 633.114L259.227 636.168L256.765 639.222M246.919 633.114L244.457 636.168L246.919 639.222M253.073 631.893L250.611 640.443" stroke="white" stroke-opacity="0.05" stroke-width="1.5" stroke-linecap="round" stroke-linejoin="round"/>
<path d="M377.394 152.785V146.88C377.086 143.675 375.049 141.245 373.167 138.318M392.505 152.785V149.243C402.221 149.243 401.14 137.434 401.14 137.434C401.14 137.434 405.458 137.434 405.458 132.71L401.14 125.625C401.14 116.177 393.801 111.539 386.03 111.454C381.676 111.407 378.2 112.55 375.601 114.552" stroke="white" stroke-opacity="0.05" stroke-width="1.5" stroke-linecap="round" stroke-linejoin="round"/>
<path d="M388.452 121.232L392.542 126.306L388.452 131.381M372.091 121.232L368.001 126.306L372.091 131.381M382.316 119.203L378.226 133.41" stroke="white" stroke-opacity="0.05" stroke-width="1.5" stroke-linecap="round" stroke-linejoin="round"/>
<path d="M211.4 479H197.6C197.268 479 197 479.268 197 479.6V493.4C197 493.732 197.268 494 197.6 494H211.4C211.732 494 212 493.732 212 493.4V479.6C212 479.268 211.732 479 211.4 479ZM204.521 486.614L200.921 489.633C200.823 489.716 200.675 489.646 200.675 489.519V488.343C200.675 488.3 200.696 488.257 200.729 488.229L202.788 486.5L200.729 484.771C200.712 484.758 200.698 484.74 200.689 484.72C200.679 484.701 200.675 484.679 200.675 484.657V483.481C200.675 483.354 200.823 483.284 200.921 483.367L204.521 486.384C204.594 486.444 204.594 486.554 204.521 486.614ZM208.325 489.519C208.325 489.601 208.261 489.669 208.184 489.669H204.716C204.639 489.669 204.575 489.601 204.575 489.519V488.619C204.575 488.536 204.639 488.469 204.716 488.469H208.184C208.261 488.469 208.325 488.536 208.325 488.619V489.519Z" fill="white" fill-opacity="0.05"/>
<path d="M166.4 649H152.6C152.268 649 152 649.268 152 649.6V663.4C152 663.732 152.268 664 152.6 664H166.4C166.732 664 167 663.732 167 663.4V649.6C167 649.268 166.732 649 166.4 649ZM159.521 656.614L155.921 659.633C155.823 659.716 155.675 659.646 155.675 659.519V658.343C155.675 658.3 155.696 658.257 155.729 658.229L157.788 656.5L155.729 654.771C155.712 654.758 155.698 654.74 155.689 654.72C155.679 654.701 155.675 654.679 155.675 654.657V653.481C155.675 653.354 155.823 653.284 155.921 653.367L159.521 656.384C159.594 656.444 159.594 656.554 159.521 656.614ZM163.325 659.519C163.325 659.601 163.261 659.669 163.184 659.669H159.716C159.639 659.669 159.575 659.601 159.575 659.519V658.619C159.575 658.536 159.639 658.469 159.716 658.469H163.184C163.261 658.469 163.325 658.536 163.325 658.619V659.519Z" fill="white" fill-opacity="0.05"/>
<path d="M349.4 144H335.6C335.268 144 335 144.268 335 144.6V158.4C335 158.732 335.268 159 335.6 159H349.4C349.732 159 350 158.732 350 158.4V144.6C350 144.268 349.732 144 349.4 144ZM342.521 151.614L338.921 154.633C338.823 154.716 338.675 154.646 338.675 154.519V153.343C338.675 153.3 338.696 153.257 338.729 153.229L340.788 151.5L338.729 149.771C338.712 149.758 338.698 149.74 338.689 149.72C338.679 149.701 338.675 149.679 338.675 149.657V148.481C338.675 148.354 338.823 148.284 338.921 148.367L342.521 151.384C342.594 151.444 342.594 151.554 342.521 151.614ZM346.325 154.519C346.325 154.601 346.261 154.669 346.184 154.669H342.716C342.639 154.669 342.575 154.601 342.575 154.519V153.619C342.575 153.536 342.639 153.469 342.716 153.469H346.184C346.261 153.469 346.325 153.536 346.325 153.619V154.519Z" fill="white" fill-opacity="0.05"/>
<path d="M162.062 407.062H141.938C141.454 407.062 141.062 407.454 141.062 407.938V428.062C141.062 428.546 141.454 428.938 141.938 428.938H162.062C162.546 428.938 162.938 428.546 162.938 428.062V407.938C162.938 407.454 162.546 407.062 162.062 407.062ZM152.03 418.167L146.78 422.569C146.638 422.689 146.422 422.588 146.422 422.402V420.688C146.422 420.625 146.452 420.562 146.501 420.521L149.504 418L146.501 415.479C146.476 415.459 146.456 415.434 146.442 415.405C146.428 415.376 146.421 415.344 146.422 415.312V413.598C146.422 413.412 146.638 413.311 146.78 413.431L152.03 417.83C152.137 417.918 152.137 418.079 152.03 418.167ZM157.578 422.402C157.578 422.523 157.485 422.621 157.373 422.621H152.314C152.202 422.621 152.109 422.523 152.109 422.402V421.09C152.109 420.97 152.202 420.871 152.314 420.871H157.373C157.485 420.871 157.578 420.97 157.578 421.09V422.402Z" fill="white" fill-opacity="0.05"/>
<path d="M300.062 72.0625H279.938C279.454 72.0625 279.062 72.4535 279.062 72.9375V93.0625C279.062 93.5465 279.454 93.9375 279.938 93.9375H300.062C300.546 93.9375 300.938 93.5465 300.938 93.0625V72.9375C300.938 72.4535 300.546 72.0625 300.062 72.0625ZM290.03 83.1668L284.78 87.5691C284.638 87.6895 284.422 87.5883 284.422 87.4023V85.6879C284.422 85.625 284.452 85.5621 284.501 85.5211L287.504 83L284.501 80.4789C284.476 80.4591 284.456 80.4337 284.442 80.4048C284.428 80.3758 284.421 80.3441 284.422 80.3121V78.5977C284.422 78.4117 284.638 78.3105 284.78 78.4309L290.03 82.8305C290.137 82.918 290.137 83.0793 290.03 83.1668ZM295.578 87.4023C295.578 87.5227 295.485 87.6211 295.373 87.6211H290.314C290.202 87.6211 290.109 87.5227 290.109 87.4023V86.0898C290.109 85.9695 290.202 85.8711 290.314 85.8711H295.373C295.485 85.8711 295.578 85.9695 295.578 86.0898V87.4023Z" fill="white" fill-opacity="0.05"/>
<path d="M168.723 462.028L163.75 467L168.723 471.983L170.25 470.445L166.805 467L170.25 463.555M174.583 457.25C175.158 457.25 175.709 457.478 176.115 457.885C176.522 458.291 176.75 458.842 176.75 459.417V474.583C176.75 475.158 176.522 475.709 176.115 476.115C175.709 476.522 175.158 476.75 174.583 476.75H159.417C158.842 476.75 158.291 476.522 157.885 476.115C157.478 475.709 157.25 475.158 157.25 474.583V459.417C157.25 458.842 157.478 458.291 157.885 457.885C158.291 457.478 158.842 457.25 159.417 457.25H174.583Z" fill="white" fill-opacity="0.05"/>
<path d="M109.723 627.028L104.75 632L109.723 636.983L111.25 635.445L107.805 632L111.25 628.555M115.583 622.25C116.158 622.25 116.709 622.478 117.115 622.885C117.522 623.291 117.75 623.842 117.75 624.417V639.583C117.75 640.158 117.522 640.709 117.115 641.115C116.709 641.522 116.158 641.75 115.583 641.75H100.417C99.842 641.75 99.2909 641.522 98.8846 641.115C98.4783 640.709 98.25 640.158 98.25 639.583V624.417C98.25 623.842 98.4783 623.291 98.8846 622.885C99.2909 622.478 99.842 622.25 100.417 622.25H115.583Z" fill="white" fill-opacity="0.05"/>
<path d="M306.723 127.028L301.75 132L306.723 136.983L308.25 135.445L304.805 132L308.25 128.555M312.583 122.25C313.158 122.25 313.709 122.478 314.115 122.885C314.522 123.291 314.75 123.842 314.75 124.417V139.583C314.75 140.158 314.522 140.709 314.115 141.115C313.709 141.522 313.158 141.75 312.583 141.75H297.417C296.842 141.75 296.291 141.522 295.885 141.115C295.478 140.709 295.25 140.158 295.25 139.583V124.417C295.25 123.842 295.478 123.291 295.885 122.885C296.291 122.478 296.842 122.25 297.417 122.25H312.583Z" fill="white" fill-opacity="0.05"/>
<path d="M102.792 436.333L96.625 442.5L102.792 448.667" stroke="white" stroke-opacity="0.05" stroke-width="2" stroke-linecap="round" stroke-linejoin="round"/>
<path d="M108.188 451.75L112.812 433.25" stroke="white" stroke-opacity="0.05" stroke-width="2" stroke-linecap="round"/>
<path d="M118.208 436.333L124.375 442.5L118.208 448.667" stroke="white" stroke-opacity="0.05" stroke-width="2" stroke-linecap="round" stroke-linejoin="round"/>
<path d="M366.792 490.333L360.625 496.5L366.792 502.667" stroke="white" stroke-opacity="0.05" stroke-width="2" stroke-linecap="round" stroke-linejoin="round"/>
<path d="M372.188 505.75L376.812 487.25" stroke="white" stroke-opacity="0.05" stroke-width="2" stroke-linecap="round"/>
<path d="M382.208 490.333L388.375 496.5L382.208 502.667" stroke="white" stroke-opacity="0.05" stroke-width="2" stroke-linecap="round" stroke-linejoin="round"/>
<path d="M240.792 101.333L234.625 107.5L240.792 113.667" stroke="white" stroke-opacity="0.05" stroke-width="2" stroke-linecap="round" stroke-linejoin="round"/>
<path d="M246.188 116.75L250.812 98.25" stroke="white" stroke-opacity="0.05" stroke-width="2" stroke-linecap="round"/>
<path d="M256.208 101.333L262.375 107.5L256.208 113.667" stroke="white" stroke-opacity="0.05" stroke-width="2" stroke-linecap="round" stroke-linejoin="round"/>
<defs>
<clipPath id="clip0_336_1983">
<rect width="38" height="38" fill="white" transform="translate(86 576)"/>
</clipPath>
<clipPath id="clip1_336_1983">
<rect width="38" height="38" fill="white" transform="translate(302 458)"/>
</clipPath>
<clipPath id="clip2_336_1983">
<rect width="38" height="52" fill="white" transform="translate(293 612)"/>
</clipPath>
<clipPath id="clip3_336_1983">
<rect width="34" height="46" fill="white" transform="translate(281 381)"/>
</clipPath>
</defs>
</svg>
