<svg width="716" height="622" viewBox="0 0 716 622" fill="none" xmlns="http://www.w3.org/2000/svg">
<path d="M353 594.982C350.766 595.022 143 594.982 143 594.982C143 572.766 143 530.169 143 530.169L153.853 513.61L285.536 500L351.626 539.341L353 594.982Z" fill="#4B4B4B"/>
<path d="M282.932 554.178H282.41L282.856 554.12L282.932 554.178Z" fill="#2F2E41"/>
<path d="M238.079 205.748C269.843 205.748 295.594 180.065 295.594 148.385C295.594 116.704 269.843 91.0217 238.079 91.0217C206.314 91.0217 180.564 116.704 180.564 148.385C180.564 180.065 206.314 205.748 238.079 205.748Z" fill="#FFB6B6"/>
<path d="M288.446 106.327C288.446 106.327 303.489 77.6457 270.394 75.0383C270.394 75.0383 242.181 49.5125 213.424 70.3718C213.424 70.3718 197.738 70.3718 189.16 88.0753C189.16 88.0753 176.823 83.4088 174.112 95.8975C174.112 95.8975 165.085 121.972 174.112 145.438C183.139 168.905 186.138 171.512 186.138 171.512C186.138 171.512 171.304 122.313 207.411 119.706C243.517 117.098 283.921 94.5939 286.93 123.275C289.939 151.957 294.467 159.024 294.467 159.024C294.467 159.024 323.046 118.061 288.446 106.327Z" fill="#2F2E41"/>
<path d="M386.857 289.754L386.671 290.728L384.592 301.676L370.222 377.408L369.372 381.866L367.587 391.295L365.146 404.158L359.733 432.662L358.184 440.831L357.604 443.896L357.401 444.97L355.794 453.425L355.305 455.978L363.382 484.969C363.382 484.969 366.325 496.465 366.956 503.232C367.587 510 361.775 509.5 363.382 516C364.99 522.5 366.026 523.971 365.586 528.485C365.146 533 363.369 539.5 358.184 545C353 550.5 344.108 554.177 344.108 554.177C344.108 554.177 322 563.5 251.5 562.5C181 561.5 153.987 554.177 153.987 554.177C146.579 549.391 136.026 550.5 134.083 539.375C132.139 528.25 135.589 528.124 135.589 528.124C135.589 528.124 137.77 512.401 135.589 510C133.418 507.599 134.083 505.632 131.658 498.94C129.233 492.248 134.66 484.969 134.66 484.969L147.494 483.03L146.096 454.122L146.063 453.425L145.6 443.896L145.541 442.67L145.448 440.831L143.672 404.157L143.638 403.553L143.099 392.437L142.594 381.866L142.375 377.408L140.212 332.8L138.747 302.507L137.468 276.135L142.611 274.397L197.624 255.75L220.412 226.204L267.84 226.557L291.058 226.733L329.798 262.567L338.612 266.765L338.68 266.799L345.002 269.813L361.03 277.445L377.976 285.522L386.672 289.661L386.857 289.754Z" fill="#CACACA"/>
<path d="M226.541 468.119C223.066 469.462 219.337 470.029 215.618 469.779C211.9 469.529 208.281 468.469 205.017 466.674C201.754 464.878 198.924 462.391 196.729 459.387C194.533 456.383 193.025 452.936 192.31 449.287L102.606 436.594L133.79 401.413L214.193 418.86C220.418 418.068 226.717 419.581 231.899 423.112C237.08 426.644 240.782 431.948 242.304 438.02C243.826 444.091 243.062 450.509 240.157 456.057C237.252 461.604 232.407 465.896 226.541 468.119Z" fill="#FFB6B6"/>
<path d="M186.546 404.158C184.884 402.057 182.532 400.608 179.904 400.069L143.099 392.437L139.32 391.656C137.123 391.199 135.048 390.284 133.23 388.972C131.413 387.659 129.893 385.979 128.772 384.041C127.608 382.006 126.904 379.742 126.709 377.408C126.534 375.286 126.788 373.15 127.458 371.128L140.212 332.8L148.487 307.931C149.49 304.932 150.082 301.811 150.246 298.654C150.707 289.916 147.997 281.305 142.611 274.398C137.876 268.327 131.309 263.936 123.879 261.873C116.45 259.811 108.552 260.187 101.353 262.945C101.143 263.021 100.924 263.105 100.714 263.189C95.551 265.245 90.9385 268.47 87.2407 272.61C83.5429 276.75 80.861 281.69 79.4072 287.042L70.4165 319.66L51.8712 386.904C50.0147 393.641 49.6397 400.699 50.7717 407.594C51.9038 414.489 54.5162 421.059 58.4301 426.854C62.344 432.649 67.4671 437.532 73.4487 441.169C79.4303 444.805 86.1291 447.111 93.0867 447.926L146.096 454.122L170.627 456.994C173.463 457.334 176.324 456.595 178.639 454.926C180.955 453.256 182.554 450.778 183.119 447.985C183.159 447.833 183.19 447.678 183.212 447.523L183.801 443.896L188.793 413.351L188.844 413.04C189.104 411.482 189.034 409.886 188.638 408.356C188.242 406.826 187.529 405.396 186.546 404.158Z" fill="#CACACA"/>
<path d="M283.679 469.099C287.309 469.939 291.081 469.976 294.727 469.205C298.373 468.435 301.806 466.877 304.783 464.64C307.76 462.404 310.21 459.543 311.959 456.261C313.708 452.978 314.713 449.352 314.906 445.64L401.918 420.457L366.072 390.014L288.939 418.595C282.664 418.686 276.641 421.07 272.011 425.295C267.381 429.519 264.465 435.291 263.817 441.516C263.169 447.742 264.832 453.988 268.493 459.072C272.154 464.155 277.557 467.723 283.679 469.099Z" fill="#FFB6B6"/>
<path d="M445.119 364.125L403.735 269.133C400.35 261.334 394.305 254.984 386.672 251.208C384.312 250.049 381.834 249.148 379.28 248.521C378.885 248.42 378.489 248.328 378.093 248.252C372.679 247.074 367.062 247.177 361.695 248.555C356.788 249.812 352.203 252.086 348.237 255.23C344.271 258.374 341.015 262.316 338.679 266.799C338.654 266.836 338.631 266.876 338.612 266.917C336.004 271.95 334.616 277.523 334.562 283.189C334.508 288.854 335.789 294.453 338.301 299.535L338.814 300.559L368.059 359.138C369.058 361.141 369.62 363.332 369.71 365.568C369.8 367.803 369.415 370.032 368.58 372.108C367.745 374.185 366.48 376.062 364.867 377.616C363.254 379.17 361.329 380.367 359.22 381.127L357.166 381.866L320.227 395.174C317.455 396.16 315.175 398.181 313.867 400.81C312.559 403.44 312.325 406.473 313.214 409.271L313.307 409.565L323.661 442.611C323.712 442.762 323.762 442.913 323.821 443.064C323.912 443.35 324.025 443.627 324.158 443.896C325.258 446.357 327.203 448.346 329.643 449.505C332.083 450.664 334.857 450.917 337.467 450.218L357.401 444.97H369.71L412.945 430.336C419.718 428.551 426.025 425.327 431.433 420.885C436.841 416.443 441.223 410.888 444.278 404.601C447.334 398.313 448.991 391.441 449.136 384.455C449.281 377.469 447.911 370.534 445.119 364.125Z" fill="#CACACA"/>
<path d="M37.796 443.896V484.969H456.787C460.452 484.975 463.966 486.43 466.557 489.016C469.149 491.602 470.606 495.108 470.609 498.764L471.157 594.923H620.293V443.896H37.796Z" fill="#3F3D56"/>
<path d="M620 530V540H471V530H620Z" fill="white"/>
<path d="M620 565V575H471V565H620Z" fill="white"/>
<path d="M386.099 214.895C385.699 214.159 385.107 213.544 384.385 213.115C383.664 212.686 382.839 212.46 381.999 212.46H106.017C104.78 212.464 103.594 212.956 102.72 213.829C101.846 214.703 101.354 215.886 101.353 217.12V381.866H386.671V217.12C386.676 216.342 386.479 215.575 386.099 214.895Z" fill="#3F3D56"/>
<path d="M101.104 377.406V397.736C101.104 398.579 101.27 399.413 101.593 400.192C101.917 400.971 102.391 401.678 102.988 402.274C103.586 402.87 104.295 403.343 105.076 403.665C105.857 403.988 106.693 404.154 107.538 404.154H212.847V444.275H211.448C211.338 444.275 211.23 444.297 211.128 444.339C211.027 444.381 210.935 444.442 210.857 444.519C210.78 444.597 210.718 444.689 210.676 444.79C210.634 444.891 210.612 444.999 210.612 445.109V447.9C210.612 448.009 210.634 448.118 210.676 448.219C210.718 448.32 210.78 448.412 210.857 448.489C210.935 448.567 211.027 448.628 211.128 448.67C211.23 448.712 211.338 448.733 211.448 448.733H276.823C276.932 448.733 277.041 448.712 277.143 448.67C277.244 448.628 277.336 448.567 277.414 448.489C277.491 448.412 277.553 448.32 277.595 448.219C277.637 448.118 277.659 448.009 277.659 447.9V445.109C277.659 444.999 277.637 444.891 277.595 444.79C277.553 444.689 277.491 444.597 277.414 444.519C277.336 444.442 277.244 444.381 277.143 444.339C277.041 444.297 276.932 444.275 276.823 444.275H275.424V404.154H380.733C381.578 404.154 382.414 403.988 383.195 403.665C383.976 403.343 384.685 402.87 385.283 402.274C385.88 401.678 386.354 400.971 386.677 400.192C387.001 399.413 387.167 398.579 387.167 397.736V377.406H101.104Z" fill="#3F3D56"/>
<path d="M243.5 366C275.256 366 301 340.256 301 308.5C301 276.744 275.256 251 243.5 251C211.744 251 186 276.744 186 308.5C186 340.256 211.744 366 243.5 366Z" fill="white" fill-opacity="0.1"/>
<path d="M243.354 334.57C257.909 334.57 269.709 322.802 269.709 308.285C269.709 293.768 257.909 282 243.354 282C228.799 282 217 293.768 217 308.285C217 322.802 228.799 334.57 243.354 334.57Z" fill="#F99C26"/>
<path d="M307.827 145.25H303.618C303.618 113.513 272.125 92.7166 240.355 92.6998C235.734 92.6863 231.123 93.1335 226.591 94.0347C221.49 95.0507 216.195 96.2681 210.992 97.8549C190.477 104.127 171.452 116.251 171.452 145.25C171.447 150.882 172.166 156.492 173.59 161.942L169.516 162.999C168.004 157.204 167.241 151.239 167.243 145.25C167.243 119.911 177.673 102.506 195.688 92.1288C205.158 86.6715 216.716 83.1535 229.958 81.4408C235.469 80.7096 241.039 80.5408 246.584 80.937C283.119 83.5565 307.827 111.498 307.827 145.25Z" fill="#F99C26"/>
<path d="M314.839 147.576L313.181 135.351C312.772 132.264 311.281 129.421 308.971 127.325C307.489 125.958 305.715 124.946 303.782 124.364C301.85 123.782 299.81 123.646 297.817 123.966L295.183 124.327C294.462 124.422 293.767 124.659 293.138 125.023C292.509 125.388 291.96 125.873 291.521 126.452C291.078 127.028 290.754 127.686 290.568 128.388C290.381 129.09 290.336 129.821 290.435 130.541L294.265 158.701C294.423 159.848 294.939 160.918 295.739 161.757C296.54 162.596 297.585 163.163 298.727 163.377C299.065 163.445 299.409 163.479 299.754 163.478C300.001 163.478 300.249 163.461 300.494 163.428L303.441 163.033C305.237 162.795 306.966 162.194 308.521 161.265C310.075 160.337 311.423 159.101 312.482 157.634C312.709 157.315 312.928 156.988 313.13 156.652C314.708 153.905 315.31 150.707 314.839 147.576Z" fill="#F99C26"/>
<path d="M293.482 124.84C292.709 125.214 292.037 125.767 291.521 126.452C291.078 127.028 290.754 127.686 290.568 128.388C290.381 129.09 290.336 129.821 290.435 130.541L294.265 158.701C294.423 159.849 294.939 160.918 295.739 161.757C296.54 162.596 297.585 163.163 298.727 163.377L293.482 124.84Z" fill="white"/>
<path d="M314.839 147.576L313.181 135.351C312.772 132.264 311.281 129.421 308.972 127.325L312.785 155.342C312.842 155.792 312.958 156.232 313.13 156.652C314.708 153.905 315.31 150.707 314.839 147.576Z" fill="#3F3D56"/>
<path d="M301.732 156.384C302.884 156.228 303.463 153.494 303.025 150.278C302.588 147.062 301.3 144.58 300.148 144.736C298.996 144.892 298.417 147.626 298.855 150.842C299.292 154.059 300.58 156.54 301.732 156.384Z" fill="#3F3D56"/>
<path d="M299.207 141.271C300.358 141.115 300.938 138.382 300.5 135.165C300.063 131.949 298.774 129.468 297.622 129.623C296.471 129.779 295.892 132.513 296.329 135.729C296.767 138.946 298.055 141.427 299.207 141.271Z" fill="#3F3D56"/>
<path d="M315.201 147.148C316.353 146.993 316.932 144.259 316.495 141.042C316.057 137.826 314.769 135.345 313.617 135.501C312.465 135.657 311.886 138.39 312.324 141.607C312.761 144.823 314.049 147.304 315.201 147.148Z" fill="#3F3D56"/>
<path d="M240.355 92.6998C235.734 92.6863 231.123 93.1335 226.591 94.0347C221.49 95.0507 216.195 96.2681 210.992 97.8549C202.869 97.4603 196.892 95.3613 195.688 92.1288C205.158 86.6715 216.717 83.1535 229.958 81.4408C235.469 80.7096 241.04 80.5408 246.584 80.937C247.171 81.2802 247.679 81.7434 248.073 82.2962C248.468 82.849 248.741 83.4788 248.874 84.1443C249.27 87.0661 245.928 90.1726 240.355 92.6998Z" fill="#3F3D56"/>
<path d="M186.613 174.384L180.131 147.509C179.9 146.539 179.387 145.659 178.656 144.98C177.925 144.3 177.009 143.851 176.023 143.689C175.744 143.645 175.463 143.623 175.181 143.621C174.784 143.623 174.388 143.671 174.003 143.764L171.494 144.369C168.264 145.148 165.476 147.173 163.741 150C162.007 152.827 161.468 156.225 162.242 159.448L165.147 171.505C165.81 174.343 167.389 176.886 169.642 178.742C170.007 179.036 170.389 179.308 170.787 179.556C172.198 180.438 173.772 181.03 175.416 181.295C177.06 181.56 178.74 181.494 180.358 181.101L182.858 180.497C183.52 180.343 184.142 180.054 184.685 179.649C185.494 179.061 186.109 178.246 186.452 177.309C186.795 176.372 186.851 175.354 186.613 174.384Z" fill="#F99C26"/>
<path d="M173.024 169.384C174.154 169.113 174.453 166.334 173.692 163.179C172.93 160.023 171.397 157.684 170.267 157.956C169.137 158.227 168.838 161.005 169.599 164.161C170.361 167.317 171.894 169.655 173.024 169.384Z" fill="#3F3D56"/>
<path d="M164.606 171.903C165.736 171.631 166.035 168.853 165.273 165.697C164.512 162.542 162.979 160.203 161.849 160.474C160.718 160.746 160.42 163.524 161.181 166.68C161.942 169.835 163.476 172.174 164.606 171.903Z" fill="#3F3D56"/>
<path d="M187.026 174.284L180.544 147.408C180.291 146.359 179.734 145.407 178.942 144.673C178.15 143.938 177.158 143.453 176.09 143.277L184.938 179.985C185.812 179.346 186.476 178.464 186.848 177.45C187.219 176.435 187.281 175.333 187.026 174.284Z" fill="white"/>
<path d="M163.707 154.125C163.528 153.378 163.193 152.676 162.722 152.068C161.811 154.421 161.644 156.997 162.242 159.448L165.147 171.505C165.81 174.343 167.389 176.886 169.642 178.742L163.707 154.125Z" fill="#3F3D56"/>
</svg>
