<svg
  xmlns="http://www.w3.org/2000/svg"
  width="24"
  height="24"
  viewBox="0 0 24 24"
  fill="none"
>
  <path
    fill-rule="evenodd"
    clip-rule="evenodd"
    d="M12 24C18.6274 24 24 18.6274 24 12C24 5.37258 18.6274 0 12 0C5.37258 0 0 5.37258 0 12C0 18.6274 5.37258 24 12 24ZM10 8.57143C10.4753 8.57143 10.8572 8.18954 10.8572 7.71429C10.8572 7.23904 10.4753 6.85715 10 6.85715C9.52476 6.85715 9.14287 7.23904 9.14287 7.71429C9.14287 8.18954 9.52476 8.57143 10 8.57143ZM10.0874 9.14287C10.9156 9.14287 11.5885 9.81977 11.5885 10.757V11.1996C11.5885 11.2777 11.559 11.3558 11.5146 11.4079C11.4702 11.46 11.4037 11.4947 11.3371 11.4947H8.83762C8.77107 11.4947 8.70451 11.46 8.66014 11.4079C8.61577 11.3558 8.58619 11.2777 8.58619 11.1996V10.757C8.58619 9.81977 9.25913 9.14287 10.0874 9.14287ZM8.73385 12.8569C8.62984 12.9789 8.5714 13.1445 8.5714 13.3171C8.5714 13.4897 8.62984 13.6553 8.73385 13.7773C8.83786 13.8994 8.97893 13.968 9.12603 13.968H14.3025C14.4496 13.968 14.5907 13.8994 14.6947 13.7773C14.7987 13.6553 14.8571 13.4897 14.8571 13.3171C14.8571 13.1445 14.7987 12.9789 14.6947 12.8569C14.5907 12.7348 14.4496 12.6662 14.3025 12.6662H9.12603C8.97893 12.6662 8.83786 12.7348 8.73385 12.8569ZM8.73385 15.4603C8.62984 15.5824 8.5714 15.7479 8.5714 15.9206C8.5714 16.0932 8.62984 16.2587 8.73385 16.3808C8.83786 16.5029 8.97893 16.5714 9.12603 16.5714H14.3025C14.4496 16.5714 14.5907 16.5029 14.6947 16.3808C14.7987 16.2587 14.8571 16.0932 14.8571 15.9206C14.8571 15.7479 14.7987 15.5824 14.6947 15.4603C14.5907 15.3383 14.4496 15.2697 14.3025 15.2697H9.12603C8.97893 15.2697 8.83786 15.3383 8.73385 15.4603ZM5.14281 5.17294C5.14281 4.21179 5.92963 3.42857 6.89519 3.42857H12.7569C12.7773 3.42857 12.7976 3.42893 12.8179 3.42964C12.8318 3.42893 12.8458 3.42857 12.8599 3.42857C12.9361 3.42857 13.0113 3.43905 13.0836 3.45924C13.4512 3.52877 13.7872 3.71323 14.0405 3.97892L14.0458 3.98503L17.8239 8.08602C18.1385 8.42006 18.2857 8.85703 18.2857 9.27218V9.38543C18.2857 9.38867 18.2857 9.39193 18.2857 9.39518C18.2857 9.39843 18.2857 9.40168 18.2857 9.40493V18.2556C18.2857 19.2168 17.4988 20 16.5333 20H6.89519C5.92963 20 5.14281 19.2168 5.14281 18.2556V5.17294ZM16.5333 10.2857V18.2556H6.89519V5.17294H12V9.39518C12 9.63136 12.0906 9.85788 12.2519 10.0249C12.4131 10.1919 12.6318 10.2857 12.8599 10.2857H16.5333ZM15.8327 8.50464L13.7198 6.21096V8.50464H15.8327Z"
    fill="white"></path>
</svg>
