<svg
  xmlns="http://www.w3.org/2000/svg"
  width="86"
  height="74"
  viewBox="0 0 86 74"
  fill="none"
>
  <g clip-path="url(#clip0_132_189)">
    <path
      fill-rule="evenodd"
      clip-rule="evenodd"
      d="M24.8755 45.9417C25.0761 45.9417 25.2696 45.9725 25.4416 46.0342C25.3549 46.0763 25.2808 46.1352 25.2251 46.2063C25.1695 46.2773 25.1338 46.3585 25.1209 46.4435C25.1081 46.5284 25.1184 46.6148 25.151 46.6958C25.1837 46.7767 25.2378 46.85 25.3091 46.9098C25.3803 46.9697 25.4668 47.0144 25.5617 47.0405C25.6565 47.0666 25.7571 47.0733 25.8555 47.0602C25.9539 47.047 26.0474 47.0143 26.1286 46.9647C26.2097 46.915 26.2763 46.8498 26.3231 46.7742C26.4523 47.0419 26.478 47.3382 26.3964 47.6194C26.3148 47.9006 26.1302 48.1518 25.8699 48.3358C25.6096 48.5197 25.2874 48.6268 24.951 48.641C24.6145 48.6553 24.2817 48.5761 24.0016 48.415C23.7215 48.2539 23.5091 48.0196 23.3957 47.7467C23.2824 47.4737 23.2741 47.1767 23.372 46.8993C23.47 46.622 23.6691 46.3792 23.9398 46.2067C24.2106 46.0343 24.5386 45.9413 24.8755 45.9417ZM24.8755 49.5954C24.515 49.6063 24.1556 49.5546 23.8189 49.4434C23.4822 49.3321 23.175 49.1636 22.9156 48.9478C22.6563 48.7321 22.4502 48.4736 22.3095 48.1878C22.1689 47.902 22.0967 47.5947 22.0972 47.2843C22.0976 46.974 22.1708 46.6669 22.3123 46.3814C22.4539 46.0959 22.6608 45.8379 22.9208 45.6227C23.1808 45.4076 23.4885 45.2398 23.8256 45.1293C24.1627 45.0188 24.5222 44.9679 24.8826 44.9797C25.577 45.0023 26.2341 45.2558 26.7157 45.6867C27.1973 46.1177 27.4659 46.6926 27.465 47.2905C27.4641 47.8884 27.1937 48.4627 26.7107 48.8926C26.2278 49.3224 25.5699 49.5744 24.8755 49.5954ZM73.0498 34.484C65.4388 51.837 48.2531 59.5669 27.9858 59.5669C18.4111 59.5669 10.7751 56.7303 5.88739 52.0066L5.92322 51.9881C7.33147 52.0498 8.59281 52.0683 9.86847 52.0683C11.0402 52.0683 12.1833 52.059 13.2404 52.0066L13.5414 51.9881C13.5414 51.9881 13.8675 51.9696 13.7062 51.9665C15.982 51.8683 18.238 51.5519 20.4321 51.023C20.777 50.9397 21.1188 50.8471 21.457 50.7455C21.618 50.6835 21.7462 50.5719 21.8164 50.4326C21.8866 50.2933 21.8936 50.1364 21.836 49.9929C21.7785 49.8494 21.6606 49.7297 21.5055 49.6572C21.3505 49.5848 21.1695 49.5649 20.9983 49.6016C18.5258 50.3385 15.265 50.7424 11.2696 50.8195C9.04661 50.8554 6.82289 50.8091 4.60456 50.6808C4.10552 50.1071 3.64376 49.51 3.22139 48.8924L2.55131 47.8441C0.537473 44.4339 -0.344026 40.4533 0.121807 36.1243H58.7559C63.5719 36.1243 68.2732 34.5765 70.5092 32.8714C66.5066 30.0718 66.9044 23.4241 69.4521 20.8896C71.6666 22.4189 75.2321 25.6379 74.6193 29.7418C77.4036 28.5393 82.2411 27.9443 86 29.8097C83.6386 33.7748 78.4499 34.9588 73.0498 34.484ZM8.08397 34.9003H16.0103V28.0768H8.08039L8.08397 34.9003ZM17.2286 34.9003H25.1586V28.0768H17.2286V34.9003ZM17.2286 27.0285H25.1586V20.2051H17.2286V27.0285ZM26.3769 34.9003H34.3068V28.0768H26.3769V34.9003ZM26.3769 27.0285H34.3068V20.2051H26.3769V27.0285ZM35.5251 34.9003H43.4551V28.0768H35.5251V34.9003ZM35.5251 27.0285H43.4551V20.2051H35.5251V27.0285ZM35.5251 19.1568H43.4551V12.3333H35.5251V19.1568ZM44.6734 34.9003H52.6033V28.0768H44.6734V34.9003Z"
      fill="white"></path>
  </g>
  <defs>
    <clipPath id="clip0_132_189">
      <rect width="86" height="74" fill="white"></rect>
    </clipPath>
  </defs>
</svg>
