<svg
  xmlns="http://www.w3.org/2000/svg"
  width="65"
  height="74"
  viewBox="0 0 65 74"
  fill="none"
>
  <g clip-path="url(#clip0_132_204)">
    <path
      d="M39.0754 9.76131L53.896 18.1547C54.5827 17.4476 55.4276 16.9068 56.3639 16.5751C57.3003 16.2434 58.3025 16.1298 59.2913 16.2433C60.2801 16.3568 61.2284 16.6944 62.0614 17.2292C62.8943 17.7641 63.5891 18.4817 64.0908 19.3252C64.5925 20.1688 64.8873 21.1152 64.9521 22.0898C65.0168 23.0644 64.8496 24.0403 64.4638 24.9406C64.0779 25.8409 63.484 26.6409 62.7288 27.2773C61.9736 27.9136 61.078 28.3691 60.1126 28.6075L60.0675 28.6163V45.4091C61.0491 45.6393 61.9617 46.0931 62.7313 46.7337C63.5008 47.3743 64.1058 48.1837 64.4972 49.0963C64.8885 50.009 65.0553 50.9992 64.9839 51.9868C64.9125 52.9744 64.605 53.9317 64.0863 54.7811C63.5676 55.6304 62.8523 56.348 61.9983 56.8756C61.1443 57.4033 60.1756 57.7263 59.1707 57.8183C58.1658 57.9104 57.1529 57.7689 56.2141 57.4055C55.2753 57.0421 54.4369 56.4668 53.7669 55.7264L53.7609 55.7205L39.0304 64.0638C39.3489 65.0046 39.4367 66.0059 39.2868 66.9862C39.1369 67.9666 38.7534 68.8985 38.1675 69.7062C37.5816 70.5139 36.8098 71.1747 35.9148 71.635C35.0198 72.0952 34.0267 72.3419 33.0162 72.355C32.0058 72.3681 31.0064 72.1473 30.0993 71.7105C29.1921 71.2737 28.4028 70.6331 27.7953 69.8409C27.1878 69.0487 26.7793 68.1271 26.603 67.151C26.4267 66.1748 26.4875 65.1717 26.7805 64.2229L26.7685 64.2671L11.9299 55.8884C11.2409 56.5937 10.3943 57.1323 9.4569 57.4617C8.51947 57.7911 7.51683 57.9023 6.52808 57.7866C5.53933 57.6708 4.59153 57.3313 3.75944 56.7947C2.92735 56.2581 2.23375 55.5392 1.73334 54.6947C1.23293 53.8502 0.939404 52.9031 0.875927 51.9283C0.81245 50.9534 0.980754 49.9774 1.36756 49.0773C1.75437 48.1772 2.3491 47.3775 3.10483 46.7414C3.86057 46.1054 4.75663 45.6503 5.72232 45.4121L5.76737 45.4032V28.6134C4.8672 28.4041 4.0237 28.0066 3.29451 27.4481C2.56532 26.8896 1.96764 26.1833 1.5423 25.3774C1.11697 24.5715 0.874004 23.6849 0.830022 22.7784C0.786039 21.8719 0.942073 20.9668 1.28746 20.1249C1.63284 19.283 2.15944 18.5241 2.83126 17.9002C3.50308 17.2763 4.30429 16.802 5.18012 16.5098C6.05596 16.2176 6.98579 16.1143 7.90606 16.207C8.82633 16.2997 9.71535 16.5863 10.5124 17.047L10.4823 17.0323C11.0349 17.3446 11.5094 17.7128 11.9208 18.14L11.9239 18.143L26.7535 9.74658C26.4674 8.80311 26.4105 7.80702 26.5873 6.8381C26.7641 5.86917 27.1697 4.95432 27.7717 4.1668C28.3737 3.37927 29.1552 2.74096 30.0538 2.30297C30.9524 1.86498 31.9431 1.63948 32.9464 1.64453C33.9498 1.64957 34.9381 1.88503 35.832 2.33203C36.726 2.77904 37.5008 3.42518 38.0945 4.21872C38.6882 5.01225 39.0843 5.93114 39.251 6.90179C39.4176 7.87245 39.3503 8.8679 39.0544 9.80845L39.0664 9.76426L39.0754 9.76131ZM37.5288 12.345C37.4748 12.4039 37.4176 12.46 37.3576 12.513L37.3546 12.5159L56.758 45.4828C56.8361 45.4562 56.9262 45.4356 57.0043 45.415V28.6016C56.1836 28.4003 55.4114 28.042 54.7322 27.5472C54.0529 27.0525 53.4799 26.4311 53.046 25.7186C52.6122 25.0061 52.3259 24.2166 52.2038 23.3954C52.0817 22.5741 52.1261 21.7373 52.3344 20.9329L52.3254 20.9771L52.3824 20.765L37.5288 12.345ZM28.4743 12.5189L28.2941 12.3421L13.4404 20.7444C13.9098 22.341 13.7167 24.0549 12.9032 25.5124C12.0897 26.9699 10.7219 28.0528 9.09788 28.525L9.05283 28.5368L8.82459 28.5987V45.415L9.07685 45.4828L28.4803 12.5159L28.4743 12.5189ZM34.7088 14.0125C33.5239 14.3459 32.2667 14.3419 31.084 14.0008L31.1291 14.0125L11.7286 46.9764C12.5875 47.7896 13.2182 48.8295 13.5215 49.9991L13.5305 50.0433H52.3043C52.6107 48.8266 53.2443 47.7807 54.1032 46.9705L54.1062 46.9676L34.7178 14.0125H34.7088ZM37.6699 61.8189L52.4365 53.4579C52.3925 53.32 52.3544 53.1805 52.3224 53.0395H13.5215L13.4585 53.284L28.2911 61.6863C29.4623 60.499 31.102 59.7625 32.9159 59.7625C34.7959 59.7625 36.4867 60.5521 37.6639 61.813L37.6699 61.8189Z"
      fill="#DB1674"></path>
  </g>
  <defs>
    <clipPath id="clip0_132_204">
      <rect width="65" height="74" fill="white"></rect>
    </clipPath>
  </defs>
</svg>
