<svg
  xmlns="http://www.w3.org/2000/svg"
  width="110"
  height="24"
  viewBox="0 0 110 24"
  fill="none"
>
  <g clip-path="url(#clip0_132_176)">
    <path
      d="M92.2846 0.00992308V3.80838H84.6841V23.7923H80.8835V3.80862H73.1246V0.00992308H92.2846ZM93.1391 21.5268C93.4068 21.5268 93.6409 21.6302 93.8392 21.8375C94.0403 22.0445 94.1404 22.2925 94.1432 22.5815C94.1428 22.771 94.0937 22.9568 94.0014 23.1185C93.911 23.278 93.7843 23.4102 93.6332 23.5027C93.4839 23.5985 93.313 23.6485 93.1391 23.6472C92.8606 23.6472 92.6239 23.5435 92.4258 23.3365C92.2275 23.1293 92.1293 22.8785 92.1319 22.5815C92.1295 22.2925 92.2275 22.0445 92.4258 21.8375C92.6239 21.6302 92.8606 21.5268 93.1391 21.5268ZM17.814 23.7923L3.80059 5.08338V23.7826H0V0H4.75041L22.4548 23.6144L22.455 3.80862L22.4535 0.00992308H41.6133V3.80838H26.2554V9.91916H38.6063V13.7178H26.2554V19.9938H41.6135V23.7923H17.814ZM53.7937 13.6816L56.2843 17.0077L51.1807 23.8205H46.1931L53.7937 13.6816ZM51.1807 0.0198462L57.611 8.59754L64.0211 0.0461539L68.9947 0.0380769L60.101 11.9192L69.0091 23.8022H64.0211L46.2073 0.0198462H51.1807ZM99.6254 13.6283H101.309V20.5975C101.307 21.2379 101.178 21.7855 100.926 22.2464C100.671 22.7068 100.318 23.0585 99.865 23.3065C99.4142 23.5516 98.8863 23.6772 98.2863 23.6772C97.7378 23.6772 97.2462 23.571 96.8084 23.3638C96.3705 23.1565 96.0231 22.8459 95.7681 22.437C95.5103 22.0283 95.3842 21.5185 95.3842 20.9082H97.0711C97.0737 21.1752 97.1302 21.4066 97.2383 21.6005C97.3447 21.7918 97.5003 21.946 97.6864 22.0445C97.8794 22.1483 98.1011 22.2 98.3505 22.2C98.6212 22.2 98.8528 22.14 99.0408 22.0172C99.2286 21.8972 99.373 21.7175 99.4735 21.4777C99.5713 21.2405 99.6228 20.9462 99.6254 20.5973V13.6283ZM108.238 16.3537C108.198 15.9314 108.017 15.6014 107.703 15.3672C107.386 15.1299 106.977 15.0129 106.475 15.0129C106.122 15.0129 105.818 15.0702 105.566 15.1818C105.314 15.2963 105.118 15.4488 104.984 15.6425C104.85 15.8358 104.783 16.0567 104.778 16.3048C104.778 16.5118 104.824 16.6918 104.914 16.8415C105.008 16.9986 105.134 17.1302 105.282 17.226C105.444 17.3352 105.617 17.4238 105.798 17.4902C105.988 17.5611 106.179 17.6211 106.369 17.6702L107.247 17.9019C107.6 17.9892 107.943 18.1062 108.27 18.2562C108.596 18.4034 108.893 18.5915 109.153 18.8176C109.413 19.0438 109.619 19.3163 109.771 19.6352C109.923 19.9542 110 20.3275 110 20.7582C110 21.3385 109.861 21.8483 109.58 22.2898C109.3 22.7287 108.895 23.0721 108.365 23.3202C107.837 23.5655 107.198 23.6908 106.446 23.6908C105.72 23.6908 105.087 23.5708 104.554 23.331C104.018 23.094 103.601 22.7448 103.3 22.287C102.998 21.8292 102.836 21.2705 102.813 20.6137H104.482C104.505 20.9571 104.608 21.2432 104.783 21.4749C104.961 21.7038 105.192 21.8728 105.476 21.9872C105.762 22.0992 106.081 22.1564 106.434 22.1564C106.802 22.1564 107.126 22.0964 107.407 21.9792C107.685 21.8619 107.904 21.6985 108.061 21.4858C108.221 21.2758 108.301 21.0279 108.303 20.7445C108.301 20.4856 108.228 20.2703 108.089 20.1012C107.948 19.9322 107.752 19.7905 107.502 19.6761C107.25 19.5616 106.956 19.458 106.622 19.3682L105.556 19.0793C104.786 18.8693 104.175 18.5506 103.73 18.1225C103.282 17.6947 103.06 17.1279 103.06 16.4165C103.06 15.8333 103.21 15.3208 103.511 14.8818C103.81 14.4434 104.219 14.1025 104.737 13.86C105.257 13.6147 105.844 13.4947 106.498 13.4947C107.162 13.4947 107.744 13.6147 108.246 13.86C108.748 14.1025 109.143 14.4404 109.428 14.871C109.714 15.3018 109.864 15.795 109.871 16.3537H108.238Z"
      fill="white"></path>
  </g>
  <defs>
    <clipPath id="clip0_132_176">
      <rect width="110" height="24" fill="white"></rect>
    </clipPath>
  </defs>
</svg>
