<svg
  xmlns="http://www.w3.org/2000/svg"
  width="109"
  height="31"
  viewBox="0 0 109 31"
  fill="none"
>
  <path
    d="M99.9213 30.5167C99.6585 30.5167 99.3975 30.4478 99.1673 30.3137L96.7657 28.8927C96.4069 28.6924 96.5818 28.6208 96.7005 28.58C97.179 28.4133 97.276 28.3743 97.7862 28.0861C97.8397 28.0562 97.9094 28.0671 97.9647 28.0997L99.8089 29.1954C99.8432 29.2137 99.8815 29.2233 99.9204 29.2233C99.9593 29.2233 99.9976 29.2137 100.032 29.1954L107.225 25.0438C107.259 25.0239 107.287 24.9954 107.306 24.9612C107.325 24.927 107.336 24.8883 107.335 24.849V16.5477C107.335 16.5079 107.325 16.4687 107.306 16.4339C107.286 16.3991 107.258 16.37 107.224 16.3493L100.034 12.2014C99.9997 12.1826 99.9615 12.1728 99.9227 12.1728C99.8839 12.1728 99.8457 12.1826 99.8117 12.2014L92.6224 16.3502C92.5883 16.3708 92.56 16.3997 92.5402 16.4343C92.5203 16.4689 92.5097 16.5079 92.5091 16.5477V24.849C92.5091 24.9287 92.5535 25.004 92.6224 25.0411L94.5926 26.1803C95.6619 26.714 96.3172 26.0851 96.3172 25.4526V17.2555C96.3172 17.1404 96.4105 17.0489 96.5256 17.0489H97.4382C97.5515 17.0489 97.6457 17.1404 97.6457 17.2555V25.4526C97.6457 26.879 96.8691 27.6973 95.516 27.6973C95.1001 27.6973 94.7729 27.6973 93.8594 27.2478L91.9735 26.1621C91.7441 26.0284 91.5537 25.8369 91.4214 25.6066C91.2891 25.3764 91.2195 25.1155 91.2195 24.8499V16.5486C91.2195 16.0094 91.5068 15.5065 91.9735 15.2382L99.1664 11.0812C99.3982 10.955 99.6579 10.8889 99.9218 10.8889C100.186 10.8889 100.445 10.955 100.677 11.0812L107.87 15.2382C108.336 15.5074 108.625 16.0103 108.625 16.5486V24.8499C108.624 25.1155 108.555 25.3763 108.422 25.6065C108.29 25.8367 108.099 26.0283 107.87 26.1621L100.677 30.3146C100.448 30.4478 100.187 30.5175 99.9213 30.5167ZM102.144 24.7973C98.9951 24.7973 98.3363 23.3519 98.3363 22.1402C98.3365 22.0851 98.3586 22.0323 98.3976 21.9934C98.4367 21.9545 98.4896 21.9327 98.5447 21.9327H99.4745C99.5243 21.9325 99.5725 21.9501 99.6104 21.9824C99.6483 22.0146 99.6734 22.0593 99.6812 22.1085C99.8207 23.0555 100.24 23.5331 102.144 23.5331C103.659 23.5331 104.304 23.1905 104.304 22.3858C104.304 21.9218 104.121 21.5783 101.766 21.3472C99.7981 21.1524 98.581 20.7183 98.581 19.1423C98.581 17.6914 99.8044 16.825 101.854 16.825C104.159 16.825 105.299 17.6253 105.443 19.3417C105.445 19.3706 105.442 19.3996 105.432 19.4271C105.423 19.4545 105.408 19.4797 105.389 19.5012C105.369 19.5218 105.345 19.5383 105.319 19.5497C105.293 19.561 105.265 19.567 105.236 19.5674H104.302C104.255 19.5674 104.209 19.5514 104.172 19.5219C104.136 19.4924 104.11 19.4512 104.1 19.4051C103.875 18.4083 103.332 18.0902 101.853 18.0902C100.2 18.0902 100.007 18.6675 100.007 19.0979C100.007 19.6208 100.234 19.7731 102.468 20.0685C104.678 20.3612 105.729 20.7745 105.729 22.3287C105.729 23.8992 104.423 24.7973 102.144 24.7973ZM85.1105 19.3526C85.3941 19.1867 85.569 18.8841 85.569 18.5551V16.4218C85.569 16.0937 85.395 15.791 85.1105 15.6252L77.5306 11.2244C77.3904 11.1429 77.2312 11.0998 77.0691 11.0995C76.907 11.0992 76.7476 11.1417 76.6071 11.2226L68.9801 15.6261C68.8403 15.707 68.7241 15.8233 68.6433 15.9633C68.5625 16.1032 68.5199 16.262 68.5198 16.4236V25.2287C68.5198 25.5595 68.6974 25.8658 68.9856 26.0298L76.5645 30.3481C76.8437 30.5085 77.1862 30.5094 77.4681 30.3535L82.0519 27.8052C82.1232 27.7656 82.1828 27.7077 82.2244 27.6375C82.2661 27.5674 82.2883 27.4874 82.2889 27.4057C82.2894 27.3241 82.2683 27.2439 82.2276 27.1731C82.1869 27.1024 82.1281 27.0437 82.0573 27.0031L74.3832 22.5988C74.3128 22.5587 74.2543 22.5007 74.2135 22.4306C74.1728 22.3606 74.1513 22.281 74.1512 22.2V19.4396C74.1512 19.2746 74.2391 19.1233 74.3814 19.0417L76.7712 17.6642C76.8409 17.6237 76.9202 17.6024 77.0009 17.6024C77.0816 17.6024 77.1608 17.6237 77.2306 17.6642L79.6204 19.0417C79.6905 19.0819 79.7488 19.1398 79.7893 19.2097C79.8299 19.2795 79.8513 19.3588 79.8515 19.4396V21.611C79.851 21.6921 79.8721 21.772 79.9125 21.8424C79.9529 21.9128 80.0113 21.9713 80.0816 22.0118C80.152 22.0523 80.2318 22.0735 80.313 22.0731C80.3942 22.0727 80.4739 22.0509 80.5439 22.0097L85.1105 19.3526ZM76.956 18.9393C76.983 18.9242 77.0135 18.9163 77.0444 18.9163C77.0753 18.9163 77.1057 18.9242 77.1328 18.9393L78.5963 19.7849C78.6507 19.8166 78.6842 19.8755 78.6842 19.938V21.6282C78.6842 21.6916 78.6507 21.7496 78.5963 21.7813L77.1328 22.626C77.1059 22.6416 77.0754 22.6498 77.0444 22.6498C77.0134 22.6498 76.9829 22.6416 76.956 22.626L75.4933 21.7813C75.4663 21.7659 75.4438 21.7437 75.4282 21.7167C75.4126 21.6898 75.4045 21.6593 75.4045 21.6282V19.938C75.4045 19.8755 75.4381 19.8166 75.4933 19.7849L76.956 18.9393ZM57.1082 22.4556C57.1082 22.5371 57.0648 22.6133 56.9932 22.655L54.3741 24.1648C54.3392 24.1852 54.2995 24.196 54.259 24.196C54.2185 24.196 54.1788 24.1852 54.1439 24.1648L51.5248 22.655C51.4899 22.6347 51.4609 22.6056 51.4407 22.5706C51.4205 22.5356 51.4098 22.496 51.4097 22.4556V19.4305C51.4097 19.349 51.4542 19.2719 51.5248 19.2302L54.1439 17.7186C54.1788 17.6977 54.2188 17.6866 54.2595 17.6866C54.3002 17.6866 54.3401 17.6977 54.375 17.7186L56.995 19.2302C57.0297 19.2509 57.0584 19.2802 57.0785 19.3153C57.0985 19.3504 57.109 19.3901 57.1092 19.4305L57.1082 22.4556ZM57.816 0.0567065C57.7458 0.0183346 57.6668 -0.00118316 57.5868 5.54882e-05C57.5068 0.00129413 57.4285 0.0232456 57.3595 0.0637727C57.2905 0.1043 57.2331 0.162019 57.1931 0.231299C57.153 0.300579 57.1316 0.379058 57.1309 0.459082V12.1633C57.1307 12.2197 57.1158 12.2752 57.0876 12.3241C57.0595 12.373 57.0191 12.4138 56.9705 12.4424C56.9214 12.4705 56.8658 12.4852 56.8092 12.4852C56.7526 12.4852 56.697 12.4705 56.6479 12.4424L54.7375 11.3413C54.5976 11.2608 54.439 11.2184 54.2776 11.2184C54.1161 11.2184 53.9576 11.2608 53.8177 11.3413L46.1888 15.7439C46.0487 15.8248 45.9323 15.9412 45.8513 16.0813C45.7703 16.2215 45.7277 16.3805 45.7276 16.5423V25.3501C45.7276 25.6791 45.9034 25.9827 46.1879 26.1486L53.8167 30.5538C54.1013 30.7188 54.4529 30.7188 54.7384 30.5538L62.369 26.1486C62.5089 26.0674 62.625 25.9509 62.7058 25.8108C62.7866 25.6707 62.8292 25.5119 62.8294 25.3501V3.39442C62.8294 3.06092 62.6482 2.7528 62.3573 2.58967L57.816 0.0567065ZM30.9675 11.1755C31.1074 11.0945 31.2662 11.0518 31.4278 11.0518C31.5895 11.0518 31.7483 11.0945 31.8882 11.1755L39.517 15.5771C39.8016 15.7421 39.9774 16.0466 39.9774 16.3755V25.1861C39.9774 25.5151 39.8016 25.8196 39.517 25.9845L31.8891 30.3898C31.7489 30.4704 31.59 30.5129 31.4283 30.5129C31.2666 30.5129 31.1077 30.4704 30.9675 30.3898L23.3414 25.9845C23.2015 25.9033 23.0854 25.7869 23.0046 25.6468C22.9238 25.5067 22.8812 25.3478 22.881 25.1861V16.3746C22.881 16.0466 23.0568 15.7421 23.3414 15.5771L30.9675 11.1755ZM17.0946 16.3021C17.0946 15.9705 16.9206 15.666 16.6342 15.5019L9.00813 11.113C8.88005 11.0387 8.73559 10.9973 8.58763 10.9924H8.50878C8.36084 10.9974 8.2164 11.0388 8.08828 11.113L0.461282 15.5019C0.320973 15.5831 0.204493 15.6998 0.123529 15.8403C0.0425644 15.9807 -3.68787e-05 16.14 2.39543e-08 16.3021L0.0163126 28.1196C0.0163126 28.2846 0.102407 28.4377 0.2465 28.5175C0.315496 28.5593 0.39464 28.5814 0.475328 28.5814C0.556016 28.5814 0.635161 28.5593 0.704156 28.5175L5.23541 25.922C5.52178 25.7516 5.69669 25.4516 5.69669 25.1227V19.6018C5.69669 19.2719 5.87069 18.9683 6.15616 18.8034L8.08647 17.6923C8.22599 17.6103 8.38502 17.5675 8.54684 17.5682C8.70453 17.5682 8.86584 17.608 9.00631 17.6923L10.9348 18.8034C11.2203 18.9683 11.3961 19.2719 11.3961 19.6018V25.1227C11.3961 25.4516 11.5728 25.7534 11.8574 25.922L16.3886 28.5175C16.4585 28.5574 16.5376 28.5783 16.6181 28.5781C16.6986 28.5779 16.7776 28.5567 16.8473 28.5164C16.917 28.4761 16.9749 28.4183 17.0153 28.3487C17.0556 28.2791 17.077 28.2001 17.0774 28.1196L17.0946 16.3021Z"
    fill="#4B4B4B"></path>
  <path
    d="M99.1674 30.3137C99.3976 30.4478 99.6586 30.5167 99.9214 30.5167C100.187 30.5175 100.448 30.4478 100.677 30.3146L107.87 26.1621C108.099 26.0282 108.29 25.8367 108.422 25.6065C108.555 25.3763 108.625 25.1155 108.625 24.8499V16.5486C108.625 16.0103 108.336 15.5074 107.87 15.2382L100.677 11.0812C100.445 10.955 100.186 10.8889 99.9219 10.8889C99.658 10.8889 99.3983 10.955 99.1665 11.0812L91.9736 15.2382C91.5069 15.5064 91.2196 16.0094 91.2196 16.5486V24.8499C91.2196 25.1154 91.2892 25.3764 91.4215 25.6066C91.5538 25.8369 91.7442 26.0284 91.9736 26.1621L93.8595 27.2478C94.773 27.6973 95.1002 27.6973 95.5161 27.6973C96.8692 27.6973 97.6458 26.879 97.6458 25.4525V17.2555C97.6458 17.1404 97.5516 17.0489 97.4383 17.0489H96.5257C96.4106 17.0489 96.3173 17.1404 96.3173 17.2555V25.4525C96.3173 26.0851 95.662 26.714 94.5927 26.1803L92.6225 25.0411C92.5536 25.0039 92.5092 24.9287 92.5092 24.849V16.5477C92.5098 16.5079 92.5205 16.4688 92.5403 16.4343C92.5601 16.3997 92.5884 16.3708 92.6225 16.3502L99.8118 12.2014C99.8458 12.1826 99.884 12.1728 99.9228 12.1728C99.9616 12.1728 99.9998 12.1826 100.034 12.2014L107.224 16.3493C107.258 16.37 107.286 16.3991 107.306 16.4339C107.325 16.4686 107.335 16.5079 107.335 16.5477V24.849C107.336 24.8883 107.326 24.927 107.306 24.9612C107.287 24.9953 107.259 25.0238 107.225 25.0438L100.032 29.1954C99.9977 29.2137 99.9594 29.2233 99.9205 29.2233C99.8816 29.2233 99.8433 29.2137 99.809 29.1954L97.9648 28.0997C97.9095 28.0671 97.8398 28.0562 97.7863 28.0861C97.2761 28.3743 97.1791 28.4133 96.7006 28.58C96.5819 28.6208 96.407 28.6924 96.7659 28.8927L99.1674 30.3137Z"
    fill="#15AE12"></path>
  <path
    d="M98.3364 22.1402C98.3364 23.3518 98.9952 24.7973 102.144 24.7973C104.423 24.7973 105.73 23.8992 105.729 22.3287C105.729 20.7745 104.678 20.3612 102.468 20.0685C100.234 19.7731 100.008 19.6208 100.008 19.0979C100.008 18.6674 100.2 18.0902 101.854 18.0902C103.332 18.0902 103.875 18.4083 104.1 19.4051C104.11 19.4512 104.136 19.4924 104.173 19.5219C104.209 19.5514 104.255 19.5674 104.302 19.5674H105.237C105.265 19.567 105.293 19.561 105.319 19.5496C105.346 19.5383 105.369 19.5218 105.389 19.5012C105.408 19.4797 105.423 19.4545 105.432 19.4271C105.442 19.3996 105.445 19.3706 105.443 19.3417C105.299 17.6253 104.159 16.825 101.854 16.825C99.8045 16.825 98.5811 17.6914 98.5811 19.1423C98.5811 20.7183 99.7982 21.1524 101.767 21.3472C104.121 21.5783 104.304 21.9218 104.304 22.3858C104.304 23.1905 103.659 23.5331 102.144 23.5331C100.24 23.5331 99.8208 23.0555 99.6813 22.1085C99.6735 22.0593 99.6484 22.0146 99.6105 21.9824C99.5726 21.9501 99.5244 21.9325 99.4746 21.9327H98.5448C98.4897 21.9327 98.4368 21.9545 98.3978 21.9934C98.3587 22.0323 98.3366 22.0851 98.3364 22.1402Z"
    fill="#15AE12"></path>
  <path
    d="M77.0445 18.9165C77.0136 18.9165 76.9832 18.9244 76.9562 18.9395L75.4935 19.785C75.4382 19.8167 75.4047 19.8757 75.4047 19.9382V21.6283C75.4046 21.6594 75.4128 21.69 75.4284 21.7169C75.444 21.7438 75.4664 21.7661 75.4935 21.7815L76.9562 22.6261C76.983 22.6417 77.0135 22.6499 77.0445 22.6499C77.0756 22.6499 77.106 22.6417 77.1329 22.6261L78.5965 21.7815C78.6508 21.7498 78.6844 21.6918 78.6844 21.6283V19.9382C78.6844 19.8757 78.6508 19.8167 78.5965 19.785L77.1329 18.9395C77.1059 18.9244 77.0755 18.9165 77.0445 18.9165Z"
    fill="#15AE12"></path>
  <path
    d="M31.4279 11.0518C31.2663 11.0518 31.1075 11.0944 30.9676 11.1754L23.3415 15.5771C23.0569 15.742 22.8811 16.0465 22.8811 16.3745V25.186C22.8813 25.3477 22.9239 25.5066 23.0047 25.6467C23.0855 25.7868 23.2016 25.9032 23.3415 25.9844L30.9676 30.3897C31.1078 30.4703 31.2667 30.5128 31.4284 30.5128C31.5901 30.5128 31.749 30.4703 31.8892 30.3897L39.5171 25.9844C39.8017 25.8195 39.9775 25.515 39.9775 25.186V16.3755C39.9775 16.0465 39.8017 15.742 39.5171 15.5771L31.8883 11.1754C31.7484 11.0944 31.5896 11.0518 31.4279 11.0518Z"
    fill="#15AE12"></path>
</svg>
