<svg
  xmlns="http://www.w3.org/2000/svg"
  width="72"
  height="72"
  viewBox="0 0 72 72"
  fill="none"
>
  <path
    d="M50.4151 3C47.7742 3.01938 45.1478 3.3927 42.6061 4.11L42.4261 4.164C40.825 3.88981 39.2052 3.73837 37.5811 3.711C34.2421 3.654 31.3711 4.44 29.0611 5.751C26.7811 4.983 22.0531 3.66 17.0701 3.924C13.5991 4.107 9.81306 5.13 7.00806 8.004C4.20906 10.878 2.73006 15.324 3.04206 21.375C3.12606 23.046 3.61506 25.767 4.43106 29.295C5.24106 32.82 6.38706 36.945 7.81206 40.71C9.23706 44.478 10.8001 47.862 13.2421 50.16C14.4601 51.312 16.1371 52.281 18.1141 52.2C19.5031 52.146 20.7601 51.555 21.8431 50.682C22.3711 51.357 22.9351 51.651 23.4481 51.924C24.0931 52.266 24.7231 52.5 25.3741 52.656C27.177 53.1175 29.0544 53.2103 30.8941 52.929C31.6951 52.8 32.5381 52.548 33.3781 52.188C33.4081 53.094 33.4441 53.982 33.4831 54.882C33.5971 57.732 33.6721 60.363 34.5541 62.67C34.6951 63.048 35.0821 64.989 36.6151 66.702C38.1451 68.418 41.1451 69.486 44.5591 68.778C46.9681 68.277 50.0341 67.374 52.0681 64.566C54.0781 61.788 54.9871 57.801 55.1671 51.339C55.2121 50.991 55.2661 50.694 55.3231 50.415L55.8031 50.457H55.8571C58.4281 50.571 61.2181 50.217 63.5491 49.167C65.6131 48.237 67.1731 47.301 68.3101 45.636C68.5951 45.225 68.9071 44.727 68.9911 43.866C69.0751 43.011 68.5711 41.667 67.7281 41.049C66.0391 39.807 64.9801 40.278 63.8431 40.509C62.7241 40.749 61.5841 40.881 60.4351 40.908C63.7141 35.556 66.0631 29.868 67.4041 24.834C68.1961 21.864 68.6431 19.125 68.6791 16.731C68.7151 14.337 68.5141 12.216 67.0351 10.38C62.4121 4.65 55.9111 3.066 50.8831 3.012C50.7271 3.009 50.5711 3.006 50.4151 3.009V3ZM50.2831 4.761C55.0381 4.716 61.1161 6.012 65.4781 11.421C66.4591 12.636 66.7501 14.412 66.7171 16.602C66.6811 18.789 66.2641 21.405 65.5021 24.273C64.0231 29.829 61.2271 36.303 57.2881 42.117C57.4283 42.2133 57.5793 42.2929 57.7381 42.354C58.5601 42.684 60.4321 42.966 64.1731 42.222C65.1121 42.027 65.8021 41.898 66.5161 42.426C66.6873 42.5675 66.8233 42.7468 66.9133 42.9499C67.0034 43.1529 67.0451 43.3741 67.0351 43.596C66.9961 43.9312 66.8687 44.2501 66.6661 44.52C65.9461 45.573 64.5181 46.572 62.6881 47.394C61.0711 48.126 58.7491 48.507 56.6911 48.531C55.6591 48.54 54.7081 48.462 53.9011 48.219L53.8471 48.201C53.5351 51.114 52.8181 56.871 52.3531 59.496C51.9781 61.614 51.3241 63.297 50.0731 64.557C48.8251 65.817 47.0611 66.576 44.6851 67.071C41.7421 67.683 39.5971 67.023 38.2141 65.892C36.8341 64.767 36.2011 63.27 35.8201 62.352C35.5591 61.722 35.4241 60.903 35.2921 59.808C35.1471 58.497 35.05 57.1811 35.0011 55.863C34.9145 53.5511 34.8865 51.2373 34.9171 48.924C33.6871 50.016 32.1571 50.742 30.5161 51.015C28.5661 51.336 26.8201 51.021 25.7791 50.769C25.2686 50.6435 24.7751 50.4571 24.3091 50.214C23.8231 49.965 23.3641 49.683 23.0581 49.125C22.8778 48.8065 22.8201 48.433 22.8961 48.075C22.9941 47.7112 23.2118 47.391 23.5141 47.166C24.0781 46.722 24.8191 46.476 25.9381 46.248C27.9781 45.843 28.6891 45.564 29.1211 45.231C29.4901 44.946 29.9071 44.37 30.6451 43.521C30.6415 43.4841 30.6385 43.447 30.6361 43.41C29.32 43.3742 28.0298 43.0366 26.8651 42.423C26.4421 42.858 24.2701 45.087 21.6211 48.177C20.5081 49.47 19.2781 50.211 17.9791 50.265C16.6801 50.319 15.5071 49.683 14.5111 48.747C12.5161 46.869 10.9261 43.638 9.54006 39.987C8.16006 36.333 7.03206 32.265 6.23406 28.8C5.43006 25.335 4.95606 22.542 4.89006 21.195C4.59006 15.468 5.97006 11.61 8.34006 9.177C10.7101 6.744 13.9561 5.823 17.1241 5.646C22.8061 5.328 28.2031 7.251 29.2951 7.665C31.3981 6.279 34.1071 5.415 37.4941 5.469C39.0995 5.49095 40.6974 5.6922 42.2581 6.069L42.3151 6.045C43.0021 5.811 43.7011 5.613 44.4091 5.457C46.3363 5.02112 48.3042 4.78984 50.2801 4.767L50.2831 4.761ZM50.7121 6.603H50.3011C48.6779 6.6249 47.0606 6.8017 45.4711 7.131C48.6264 8.50503 51.3986 10.6285 53.5471 13.317C54.8481 14.9257 55.9277 16.7015 56.7571 18.597C57.0691 19.323 57.2791 19.938 57.3961 20.412C57.4561 20.652 57.4981 20.853 57.5101 21.063C57.5216 21.1959 57.5104 21.3298 57.4771 21.459L57.4591 21.495C57.5461 23.904 56.9311 25.536 56.8561 27.834C56.7991 29.502 57.2371 31.461 57.3451 33.594C57.4471 35.604 57.1981 37.809 55.8541 39.975C55.9681 40.107 56.0701 40.239 56.1781 40.371C59.7331 34.941 62.2981 28.929 63.6631 23.808C64.3921 21.048 64.7821 18.549 64.8151 16.569C64.8451 14.589 64.4641 13.152 63.9781 12.555C60.1741 7.836 55.0291 6.636 50.7121 6.603ZM37.1371 7.308C33.7861 7.314 31.3801 8.298 29.5591 9.768C27.6781 11.289 26.4181 13.368 25.5901 15.501C24.7885 17.6326 24.2985 19.8686 24.1351 22.14L24.1741 22.119C25.1851 21.567 26.5141 21.018 27.9361 20.7C29.3611 20.382 30.8941 20.283 32.2831 20.805C33.6721 21.33 34.8211 22.557 35.2381 24.423C37.2331 33.381 34.6171 36.711 33.6511 39.222C33.2855 40.1325 32.972 41.063 32.7121 42.009C32.8351 41.979 32.9581 41.949 33.0781 41.937C33.6051 41.9085 34.1309 42.0116 34.6081 42.237C35.5801 42.627 36.2461 43.443 36.6061 44.379C36.6991 44.625 36.7681 44.889 36.8071 45.159C36.8491 45.273 36.8671 45.39 36.8641 45.51C36.7564 48.9354 36.7684 52.3635 36.9001 55.788C36.9661 57.27 37.0621 58.572 37.1851 59.601C37.3051 60.627 37.4791 61.407 37.5901 61.671C37.9501 62.553 38.4811 63.705 39.4411 64.488C40.4011 65.268 41.7721 65.79 44.2831 65.268C46.4611 64.815 47.8051 64.188 48.7051 63.279C49.5991 62.376 50.1361 61.119 50.4781 59.19C50.9911 56.301 52.0231 47.928 52.1461 46.35C52.0921 45.165 52.2721 44.25 52.6621 43.554C53.0671 42.84 53.6911 42.402 54.2281 42.165C54.4981 42.045 54.7501 41.967 54.9571 41.91C54.7374 41.6042 54.5072 41.306 54.2671 41.016C53.4936 40.1068 52.8578 39.0889 52.3801 37.995C52.1519 37.544 51.9088 37.1008 51.6511 36.666C51.2761 36.006 50.7991 35.181 50.3011 34.254C49.3021 32.397 48.2161 30.147 47.6521 27.954C47.0911 25.767 47.0071 23.502 48.4471 21.903C49.7251 20.484 51.9631 19.896 55.3261 20.226C55.2271 19.938 55.1671 19.698 54.9991 19.314C54.2361 17.5731 53.2444 15.9417 52.0501 14.463C49.2001 10.929 44.5891 7.425 37.4611 7.311L37.1371 7.308ZM18.3091 7.449C17.9491 7.449 17.5891 7.461 17.2291 7.479C14.3671 7.638 11.6611 8.445 9.72606 10.437C7.78506 12.426 6.51006 15.69 6.78606 21.096C6.84306 22.116 7.30206 24.984 8.08806 28.386C8.87406 31.794 9.99006 35.799 11.3281 39.336C12.6661 42.876 14.2921 45.957 15.8341 47.415C16.6111 48.144 17.2861 48.438 17.8981 48.414C18.5131 48.384 19.2511 48.042 20.1571 46.989C21.8071 45.0582 23.5179 43.1803 25.2871 41.358C24.0376 40.3093 23.0755 38.96 22.4911 37.437C21.9143 35.9276 21.7385 34.2945 21.9811 32.697C22.2721 30.663 22.3111 28.761 22.2781 27.261C22.2421 25.797 22.1341 24.825 22.1341 24.216V24.132C22.1314 20.9614 22.6994 17.8163 23.8111 14.847C24.6031 12.801 25.7851 10.722 27.5581 9.039C25.8181 8.484 22.7281 7.638 19.3831 7.479C19.0234 7.46024 18.6632 7.45024 18.3031 7.449H18.3091ZM53.4511 21.975C51.5281 21.999 50.4481 22.482 49.8811 23.112C49.0771 24.006 49.0021 25.572 49.5001 27.504C49.9951 29.436 51.0211 31.599 51.9871 33.393C52.4671 34.293 52.9351 35.103 53.3131 35.757C53.6941 36.417 53.9731 36.885 54.1411 37.287C54.2971 37.653 54.4711 37.977 54.6451 38.28C55.3891 36.753 55.5241 35.256 55.4461 33.693C55.3471 31.761 54.8851 29.784 54.9541 27.783C55.0291 25.443 55.5061 23.916 55.5481 22.107C54.8525 22.0196 54.1521 21.9755 53.4511 21.975ZM30.1111 22.29C29.5234 22.2955 28.9381 22.3639 28.3651 22.494C27.226 22.7622 26.1267 23.1777 25.0951 23.73C24.7501 23.91 24.4171 24.12 24.1051 24.357L24.0451 24.411C24.0631 24.813 24.1441 25.788 24.1801 27.219C24.2101 28.788 24.1741 30.789 23.8621 32.949C23.1841 37.653 26.7001 41.547 30.8341 41.553C31.0741 40.587 31.4731 39.609 31.8691 38.577C33.0211 35.568 35.2861 33.375 33.3781 24.81C33.0661 23.409 32.4481 22.842 31.5961 22.521C31.1185 22.3573 30.6158 22.2791 30.1111 22.29ZM52.5511 22.851H52.6951C52.8811 22.857 53.0551 22.878 53.2051 22.911C53.3431 22.9385 53.4751 22.9903 53.5951 23.064C53.6493 23.0966 53.6963 23.1401 53.7329 23.1917C53.7696 23.2434 53.7952 23.302 53.8081 23.364V23.388C53.8128 23.5195 53.7772 23.6493 53.7061 23.76C53.6219 23.911 53.5168 24.0493 53.3941 24.171C53.1039 24.4802 52.7203 24.6857 52.3021 24.756C51.8924 24.8045 51.479 24.7033 51.1381 24.471C51.0001 24.3813 50.8758 24.2722 50.7691 24.147C50.6774 24.0503 50.615 23.9297 50.5891 23.799C50.5827 23.7349 50.5902 23.6701 50.6108 23.609C50.6315 23.548 50.665 23.4921 50.7091 23.445C50.8032 23.3424 50.9163 23.2588 51.0421 23.199C51.516 22.9773 52.0309 22.8567 52.5541 22.845L52.5511 22.851ZM30.3871 23.313C30.5371 23.313 30.6961 23.328 30.8581 23.349C31.2901 23.409 31.6771 23.52 31.9711 23.685C32.1151 23.76 32.2411 23.856 32.3491 23.976C32.4052 24.0399 32.448 24.1144 32.4751 24.195C32.5019 24.2751 32.5111 24.36 32.5021 24.444C32.4741 24.6028 32.4 24.7499 32.2891 24.867C32.1727 25.0065 32.0362 25.1278 31.8841 25.227C31.5116 25.481 31.0595 25.5908 30.6121 25.536C30.1577 25.464 29.7399 25.2435 29.4241 24.909C29.291 24.7759 29.1778 24.6244 29.0881 24.459C28.9946 24.3151 28.9533 24.1436 28.9711 23.973C29.0131 23.673 29.2681 23.523 29.5111 23.433C29.7925 23.3466 30.087 23.31 30.3811 23.325L30.3871 23.313ZM56.0671 43.509H56.0581C55.6411 43.659 55.2991 43.719 55.0081 43.839C54.7186 43.9472 54.4786 44.1574 54.3331 44.43C54.1531 44.745 54.0031 45.306 54.0481 46.26C54.1771 46.3457 54.3188 46.4105 54.4681 46.452C54.9511 46.596 55.7641 46.692 56.6731 46.677C58.4791 46.656 60.7051 46.248 61.8871 45.714C62.8561 45.276 63.7561 44.706 64.5601 44.022C60.6091 44.814 58.3801 44.604 57.0091 44.055C56.6699 43.919 56.3526 43.734 56.0671 43.506V43.509ZM33.3031 43.767H33.2431C33.0931 43.779 32.8741 43.827 32.4541 44.283C31.4641 45.357 31.1221 46.029 30.3061 46.659C29.4961 47.289 28.4371 47.622 26.3251 48.042C25.6561 48.174 25.2751 48.321 25.0171 48.438C25.1011 48.504 25.0921 48.522 25.2151 48.585C25.5241 48.75 25.9231 48.894 26.2411 48.975C27.1501 49.194 28.6411 49.452 30.1981 49.194C31.7521 48.936 33.3721 48.213 34.7521 46.335C34.9921 46.011 35.0161 45.531 34.8211 45.015C34.6201 44.505 34.1881 44.061 33.8821 43.935C33.6989 43.8505 33.5034 43.7959 33.3031 43.773V43.767Z"
    fill="white"></path>
</svg>
