<svg
  xmlns="http://www.w3.org/2000/svg"
  width="72"
  height="64"
  viewBox="0 0 72 64"
  fill="none"
>
  <path
    d="M42.69 32.0078C42.69 33.7829 41.9837 35.4853 40.7263 36.7407C39.469 37.9962 37.7636 38.7019 35.985 38.7027C34.2059 38.7027 32.4997 37.9973 31.2417 36.7418C29.9837 35.4862 29.277 33.7834 29.277 32.0078C29.277 30.2327 29.9833 28.5303 31.2407 27.2749C32.498 26.0194 34.2034 25.3137 35.982 25.3129C37.7611 25.3129 39.4673 26.0183 40.7253 27.2738C41.9833 28.5293 42.69 30.2322 42.69 32.0078ZM50.634 0.000612296C46.596 0.000612296 41.313 2.87497 35.97 7.8512C30.63 2.90192 25.344 0.0604947 21.309 0.0604947C20.079 0.0604947 18.96 0.338948 17.991 0.892861C13.866 3.2672 12.942 10.6657 15.072 19.9505C5.94 22.7649 0 27.2651 0 32.0078C0 36.7684 5.97 41.2806 15.129 44.0741C13.017 53.3948 13.959 60.8053 18.093 63.1766C19.053 63.7365 20.163 64 21.399 64C25.434 64 30.72 61.1256 36.063 56.1434C41.403 61.0957 46.689 63.9371 50.724 63.9371C51.954 63.9371 53.073 63.6677 54.042 63.1137C58.164 60.7424 59.091 53.3439 56.961 44.0561C66.06 41.2656 72 36.7565 72 32.0078C72 27.2471 66.03 22.735 56.871 19.9355C58.983 10.6238 58.041 3.20732 53.907 0.832979C52.9076 0.272058 51.7804 -0.015106 50.634 0.000612296ZM50.619 3.26421V3.28217C51.294 3.28217 51.837 3.41391 52.293 3.66242C54.291 4.80618 55.158 9.15664 54.483 14.7527C54.321 16.13 54.057 17.5821 53.733 19.0642C50.6654 18.3234 47.5514 17.7892 44.412 17.4653C42.5424 14.8904 40.5029 12.4428 38.307 10.1387C43.083 5.70741 47.568 3.27618 50.622 3.2672L50.619 3.26421ZM21.309 3.32409C24.345 3.32409 28.851 5.74334 33.639 10.1507C31.581 12.3065 29.529 14.7527 27.579 17.4623C24.4323 17.7825 21.3118 18.3207 18.24 19.0732C17.9179 17.669 17.6636 16.2501 17.478 14.8215C16.788 9.2285 17.64 4.88103 19.62 3.72231C20.19 3.45284 20.82 3.33906 21.309 3.32409ZM35.955 12.4562C37.32 13.8574 38.685 15.4263 40.035 17.139C38.715 17.0791 37.365 17.0372 36 17.0372C34.62 17.0372 33.255 17.0671 31.92 17.139C33.24 15.4263 34.605 13.8604 35.955 12.4562ZM36 20.3187C38.22 20.3187 40.431 20.4205 42.606 20.5972C43.824 22.3398 45.012 24.1991 46.155 26.1663C47.271 28.0825 48.285 30.0287 49.209 31.9928C48.285 33.954 47.271 35.9151 46.17 37.8314C45.03 39.8075 43.851 41.6878 42.63 43.4304C38.2266 43.8149 33.7982 43.8199 29.394 43.4453C28.1345 41.6387 26.9505 39.7807 25.845 37.8763C24.729 35.96 23.715 34.0139 22.791 32.0497C23.718 30.0562 24.732 28.1042 25.83 26.1992C26.97 24.2231 28.149 22.3487 29.37 20.6062C31.5746 20.4117 33.7868 20.3138 36 20.3127V20.3187ZM25.095 21.0792C24.375 22.208 23.655 23.3638 22.983 24.5524C22.308 25.7201 21.678 26.8938 21.078 28.0675C20.283 26.1034 19.608 24.1452 19.05 22.238C20.97 21.7888 22.995 21.3876 25.095 21.0792ZM46.875 21.0792C48.96 21.3876 50.97 21.7679 52.893 22.238C52.353 24.1303 51.678 26.0764 50.913 28.0256C49.6888 25.6423 48.342 23.3237 46.878 21.0792H46.875ZM56.064 23.1003C57.516 23.5494 58.896 24.0494 60.189 24.5914C65.385 26.807 68.745 29.7053 68.745 32.0048C68.73 34.3043 65.37 37.2146 60.174 39.4153C58.914 39.9542 57.534 40.4392 56.109 40.8914C55.2079 37.8476 54.1055 34.8669 52.809 31.9689C54.159 28.9238 55.239 25.9507 56.064 23.0943V23.1003ZM15.879 23.1123C16.713 25.9866 17.814 28.9718 19.179 32.0347C17.8919 34.9155 16.8033 37.8806 15.921 40.9093C14.469 40.4602 13.089 39.9572 11.811 39.4123C6.615 37.2056 3.255 34.3043 3.255 32.0048C3.255 29.7053 6.615 26.789 11.811 24.5914C13.071 24.0524 14.451 23.5674 15.879 23.1123ZM50.913 35.9271C51.708 37.8942 52.383 39.8554 52.941 41.7597C51.021 42.2297 48.993 42.6279 46.893 42.9274C48.3552 40.6654 49.695 38.3288 50.913 35.9271ZM21.078 35.987C21.678 37.1607 22.308 38.3314 22.998 39.5051C23.688 40.6728 24.393 41.8165 25.113 42.9274C23.0902 42.6353 21.082 42.2496 19.095 41.7716C19.635 39.8853 20.313 37.9332 21.075 35.984L21.078 35.987ZM53.76 44.9304C54.096 46.4065 54.36 47.8287 54.522 49.1911C55.212 54.7841 54.36 59.1316 52.38 60.2933C51.939 60.5627 51.366 60.6765 50.691 60.6765C47.655 60.6765 43.149 58.2603 38.361 53.8499C40.419 51.6942 42.471 49.2509 44.421 46.5443C47.742 46.191 50.883 45.649 53.76 44.9304ZM18.27 44.9604C21.15 45.661 24.288 46.2029 27.591 46.5532C29.571 49.2629 31.626 51.7241 33.696 53.8769C28.911 58.3172 24.42 60.7484 21.366 60.7484C20.7891 60.753 20.2197 60.6173 19.707 60.3532C17.709 59.2154 16.842 54.8619 17.517 49.2659C17.679 47.8886 17.946 46.4395 18.27 44.9604ZM31.95 46.8766C33.27 46.9365 34.62 46.9784 35.985 46.9784C37.365 46.9784 38.73 46.9485 40.065 46.8766C38.745 48.5892 37.38 50.1552 36.03 51.5624C34.665 50.1552 33.3 48.5892 31.95 46.8766Z"
    fill="#00F3F3"></path>
</svg>
